# Blender v2.78 (sub 0) OBJ File: 'Room.blend'
# www.blender.org
o Cube.003_Cube.007
v -0.037500 -0.000000 -0.112500
v -0.037500 0.300000 -0.112500
v 0.037500 -0.000000 -0.112500
v 0.037500 0.300000 -0.112500
v -0.014125 0.000000 0.112500
v -0.037500 -0.000000 0.087750
v -0.030251 -0.000000 0.105251
v -0.037500 0.300000 0.087750
v -0.014125 0.300000 0.112500
v -0.030251 0.300000 0.105251
v 0.037500 -0.000000 0.087750
v 0.012750 -0.000000 0.112500
v 0.030251 -0.000000 0.105251
v 0.012750 0.300000 0.112500
v 0.037500 0.300000 0.087750
v 0.030251 0.300000 0.105251
v -0.030000 0.300000 -0.112500
v -0.030000 -0.000000 -0.112500
v 0.030000 -0.000000 -0.112500
v 0.030000 0.300000 -0.112500
v -0.024251 -0.000000 0.099251
v -0.012750 -0.000000 0.105000
v -0.012750 0.300000 0.105000
v -0.024251 0.300000 0.099251
v -0.030000 -0.000000 0.087750
v -0.030000 0.300000 0.087750
v 0.024251 0.300000 0.099251
v 0.012750 0.300000 0.105000
v 0.012750 -0.000000 0.105000
v 0.024251 -0.000000 0.099251
v 0.030000 0.300000 0.087750
v 0.030000 -0.000000 0.087750
v -0.030000 0.292500 -0.097500
v -0.030000 0.007500 -0.097500
v 0.030000 0.007500 -0.097500
v 0.030000 0.292500 -0.097500
v -0.024247 0.007500 0.099248
v -0.012750 0.007500 0.105000
v -0.012750 0.292500 0.105000
v -0.024247 0.292500 0.099248
v -0.030000 0.007500 0.087750
v -0.030000 0.292500 0.087750
v 0.024247 0.292500 0.099248
v 0.012750 0.292500 0.105000
v 0.012750 0.007500 0.105000
v 0.024247 0.007500 0.099248
v 0.030000 0.292500 0.087750
v 0.030000 0.007500 0.087750
v 0.012750 0.007500 -0.093981
v -0.012750 0.007500 -0.093981
v -0.012750 0.292500 -0.093981
v 0.012750 0.292500 -0.093981
v -0.012750 0.292500 0.091269
v 0.012750 0.292500 0.091268
v 0.012750 0.007500 0.091261
v -0.012750 0.007500 0.091261
vt 0.5614 0.6938
vt 0.5974 0.6938
vt 0.5920 0.7070
vt 0.5676 0.7087
vt 0.0243 0.1238
vt 0.0243 0.6938
vt 0.0101 0.6938
vt 0.0101 0.1238
vt 0.4744 0.6938
vt 0.5254 0.6938
vt 0.5254 0.7081
vt 0.4770 0.7081
vt 0.4408 0.1238
vt 0.4048 0.1238
vt 0.4103 0.1107
vt 0.4346 0.1089
vt 0.9779 0.6938
vt 0.9779 0.7081
vt 0.5974 0.7081
vt 0.5974 0.1238
vt 0.5614 0.1238
vt 0.5676 0.1089
vt 0.5920 0.1107
vt 0.4048 0.6938
vt 0.4408 0.6938
vt 0.4346 0.7087
vt 0.4103 0.7070
vt 0.9779 0.1238
vt 0.9922 0.1238
vt 0.9922 0.6938
vt 0.0243 0.1096
vt 0.4048 0.1096
vt 0.5553 0.7087
vt 0.5309 0.7070
vt 0.4744 0.1238
vt 0.4465 0.1088
vt 0.4709 0.1098
vt 0.5974 0.1096
vt 0.9779 0.1096
vt 0.5254 0.1238
vt 0.4770 0.1096
vt 0.5254 0.1096
vt 0.5309 0.1107
vt 0.5553 0.1089
vt 0.4709 0.7079
vt 0.4465 0.7089
vt 0.4048 0.7081
vt 0.0243 0.7081
vt 0.2881 0.8085
vt 0.2881 0.8346
vt 0.0140 0.8346
vt 0.0140 0.8085
vt 0.7098 0.8983
vt 0.7098 0.8723
vt 0.9839 0.8723
vt 0.9839 0.8983
vt 0.0140 0.8983
vt 0.0140 0.8723
vt 0.2881 0.8723
vt 0.2881 0.8983
vt 0.9839 0.8085
vt 0.9839 0.8346
vt 0.7098 0.8346
vt 0.7098 0.8085
vt 0.4744 0.1238
vt 0.5254 0.1238
vt 0.5254 0.1381
vt 0.4744 0.1381
vt 0.5614 0.1238
vt 0.5974 0.1238
vt 0.5974 0.1381
vt 0.5614 0.1381
vt 0.0243 0.1238
vt 0.4048 0.1238
vt 0.4048 0.1381
vt 0.0528 0.1381
vt 0.5974 0.6938
vt 0.5614 0.6938
vt 0.5614 0.6796
vt 0.5974 0.6796
vt 0.9779 0.1238
vt 0.9779 0.6938
vt 0.9494 0.6796
vt 0.9494 0.1381
vt 0.4744 0.6938
vt 0.4408 0.6938
vt 0.4408 0.6796
vt 0.4744 0.6796
vt 0.5254 0.6938
vt 0.5254 0.6796
vt 0.4408 0.1238
vt 0.4408 0.1381
vt 0.4048 0.6938
vt 0.0243 0.6938
vt 0.0528 0.6796
vt 0.4048 0.6796
vt 0.2881 0.8723
vt 0.7098 0.8723
vt 0.7098 0.8983
vt 0.2881 0.8983
vt 0.2881 0.8085
vt 0.7098 0.8085
vt 0.7098 0.8346
vt 0.2881 0.8346
vt 0.2881 0.8346
vt 0.7098 0.8346
vt 0.7098 0.8723
vt 0.2881 0.8723
vt 0.7098 0.8983
vt 0.2881 0.8983
vt 0.2881 0.8085
vt 0.7098 0.8085
vn 0.0000 1.0000 -0.0000
vn 0.0000 0.0000 -1.0000
vn 0.0000 -1.0000 0.0000
vn 0.1456 -0.6657 0.7319
vn 0.1456 0.6657 0.7318
vn -0.1570 0.6628 0.7321
vn -0.1570 -0.6628 0.7321
vn -0.7319 -0.6657 0.1456
vn -0.7319 0.6657 0.1456
vn -0.5773 0.5773 -0.5773
vn -0.5773 -0.5773 -0.5773
vn 0.5773 -0.5773 -0.5773
vn 0.5773 0.5773 -0.5773
vn 0.7319 0.6657 0.1456
vn 0.7319 -0.6657 0.1456
vn -0.5556 0.6327 0.5393
vn -0.5556 -0.6327 0.5393
vn 0.5490 -0.6302 0.5490
vn 0.5490 0.6302 0.5490
vn -0.1486 -0.7627 -0.6294
vn 0.1486 -0.7627 -0.6294
vn 0.2298 -0.0001 -0.9732
vn -0.2298 -0.0001 -0.9732
vn 0.4373 -0.7858 -0.4373
vn 0.6294 -0.7627 -0.1486
vn 0.9163 -0.3993 0.0301
vn 0.7071 -0.0002 -0.7071
vn -0.6294 -0.7627 -0.1486
vn -0.9163 -0.3993 0.0301
vn -0.9253 -0.2521 -0.2833
vn 0.6294 0.7627 -0.1486
vn 0.4373 0.7858 -0.4373
vn 0.7071 0.0002 -0.7071
vn 0.9163 0.3993 0.0301
vn 0.9253 0.2521 -0.2833
vn 0.9253 -0.2521 -0.2833
vn -0.1486 0.7627 -0.6294
vn -0.4373 0.7858 -0.4373
vn -0.7071 0.0002 -0.7071
vn -0.2298 0.0001 -0.9732
vn 0.1486 0.7627 -0.6294
vn 0.2298 0.0001 -0.9732
vn -0.4373 -0.7858 -0.4373
vn -0.7071 -0.0002 -0.7071
vn -0.6294 0.7627 -0.1486
vn -0.9253 0.2521 -0.2833
vn -0.9163 0.3993 0.0301
vn -0.0686 -0.7304 -0.6795
vn -0.0686 0.7304 -0.6795
vn 0.0686 0.7304 -0.6795
vn 0.0686 -0.7304 -0.6795
vn -0.0731 0.6851 0.7247
vn -0.0731 -0.6852 0.7246
vn 0.0731 -0.6852 0.7246
vn 0.0731 0.6852 0.7247
s off
f 16/1/1 15/2/1 31/3/1 27/4/1
f 1/5/2 2/6/2 17/7/2 18/8/2
f 9/9/1 14/10/1 28/11/1 23/12/1
f 7/13/3 6/14/3 25/15/3 21/16/3
f 15/2/1 4/17/1 20/18/1 31/19/1
f 11/20/3 13/21/3 30/22/3 32/23/3
f 8/24/1 10/25/1 24/26/1 26/27/1
f 4/17/2 3/28/2 19/29/2 20/30/2
f 6/14/3 1/5/3 18/31/3 25/32/3
f 14/10/1 16/1/1 27/33/1 28/34/1
f 5/35/3 7/13/3 21/36/3 22/37/3
f 3/28/3 11/20/3 32/38/3 19/39/3
f 12/40/3 5/35/3 22/41/3 29/42/3
f 13/21/3 12/40/3 29/43/3 30/44/3
f 10/25/1 9/9/1 23/45/1 24/46/1
f 2/6/1 8/24/1 26/47/1 17/48/1
f 36/49/1 52/50/1 54/51/1 47/52/1
f 34/53/3 50/54/3 56/55/3 41/56/3
f 42/57/1 53/58/1 51/59/1 33/60/1
f 53/58/1 54/51/1 52/50/1 51/59/1
f 48/61/3 55/62/3 49/63/3 35/64/3
f 55/62/3 56/55/3 50/54/3 49/63/3
s 1
f 12/40/4 14/10/5 9/9/6 5/35/7
f 6/14/8 8/24/9 2/6/10 1/5/11
f 3/28/12 4/17/13 15/2/14 11/20/15
f 5/35/7 9/9/6 10/25/16 7/13/17
f 7/13/17 10/25/16 8/24/9 6/14/8
f 14/10/5 12/40/4 13/21/18 16/1/19
f 16/1/19 13/21/18 11/20/15 15/2/14
s 2
f 29/65/20 22/66/21 38/67/22 45/68/23
f 21/69/24 25/70/25 41/71/26 37/72/27
f 19/73/11 32/74/28 48/75/29 35/76/30
f 26/77/31 24/78/32 40/79/33 42/80/34
f 18/81/12 17/82/13 33/83/35 34/84/36
f 17/82/13 26/77/31 42/80/34 33/83/35
f 28/85/37 27/86/38 43/87/39 44/88/40
f 23/89/41 28/85/37 44/88/40 39/90/42
f 30/91/43 29/65/20 45/68/23 46/92/44
f 31/93/45 20/94/10 36/95/46 47/96/47
f 27/86/38 31/93/45 47/96/47 43/87/39
f 20/94/10 19/73/11 35/76/30 36/95/46
f 32/74/28 30/91/43 46/92/44 48/75/29
f 22/66/21 21/69/24 37/72/27 38/67/22
f 25/70/25 18/81/12 34/84/36 41/71/26
f 24/78/32 23/89/41 39/90/42 40/79/33
f 47/96/47 48/75/29 46/92/44 43/87/39
f 43/87/39 46/92/44 45/68/23 44/88/40
f 38/67/22 39/90/42 44/88/40 45/68/23
f 37/72/27 40/79/33 39/90/42 38/67/22
f 41/71/26 42/80/34 40/79/33 37/72/27
s 3
f 49/97/48 52/98/49 36/99/46 35/100/30
f 34/101/36 33/102/35 51/103/50 50/104/51
f 50/104/51 51/103/50 52/98/49 49/97/48
s 4
f 53/105/52 56/106/53 55/107/54 54/108/55
f 54/108/55 55/107/54 48/109/29 47/110/47
f 42/111/34 41/112/26 56/106/53 53/105/52
