# Blender v2.78 (sub 0) OBJ File: 'Room.blend'
# www.blender.org
o GD_mesh
v 0.000000 0.174618 0.063821
v 0.000000 0.135175 0.127642
v 0.060697 0.174618 0.019722
v 0.121394 0.135175 0.039443
v 0.037513 0.174618 -0.051632
v 0.075026 0.135175 -0.103264
v -0.037513 0.174618 -0.051632
v -0.075026 0.135175 -0.103264
v -0.060697 0.174618 0.019722
v -0.121394 0.135175 0.039443
v 0.060697 0.095731 0.147363
v 0.121394 0.095731 0.103264
v 0.158907 0.095731 -0.012189
v 0.135723 0.095731 -0.083542
v 0.037513 0.095731 -0.154896
v -0.037513 0.095731 -0.154896
v -0.135723 0.095731 -0.083542
v -0.158907 0.095731 -0.012189
v -0.121394 0.095731 0.103264
v -0.060697 0.095731 0.147363
v 0.037513 0.031910 0.179274
v 0.075026 -0.031910 0.167085
v 0.158907 0.031910 0.091075
v 0.135723 -0.031910 0.122986
v 0.182091 0.031910 0.019722
v 0.182091 -0.031910 -0.019722
v 0.135723 0.031910 -0.122986
v 0.158907 -0.031910 -0.091075
v 0.075026 0.031910 -0.167085
v 0.037513 -0.031910 -0.179274
v -0.075026 0.031910 -0.167085
v -0.037513 -0.031910 -0.179274
v -0.135723 0.031910 -0.122986
v -0.158907 -0.031910 -0.091075
v -0.182091 0.031910 0.019722
v -0.182091 -0.031910 -0.019722
v -0.158907 0.031910 0.091075
v -0.135723 -0.031910 0.122986
v -0.037513 0.031910 0.179274
v -0.075026 -0.031910 0.167085
v 0.135723 -0.095731 0.083542
v 0.158907 -0.095731 0.012189
v 0.121394 -0.095731 -0.103264
v 0.060697 -0.095731 -0.147363
v -0.060697 -0.095731 -0.147363
v -0.121394 -0.095731 -0.103264
v -0.158907 -0.095731 0.012189
v -0.135723 -0.095731 0.083542
v -0.037513 -0.095731 0.154896
v 0.037513 -0.095731 0.154896
v 0.075026 -0.135175 0.103264
v 0.037513 -0.174618 0.051632
v 0.121394 -0.135175 -0.039443
v 0.060697 -0.174618 -0.019722
v 0.000000 -0.135175 -0.127642
v 0.000000 -0.174618 -0.063821
v -0.121394 -0.135175 -0.039443
v -0.060697 -0.174618 -0.019722
v -0.075026 -0.135175 0.103264
v -0.037513 -0.174618 0.051632
v 0.065295 0.145415 0.089871
v 0.105650 0.145415 -0.034328
v 0.000000 0.145415 -0.111087
v -0.105650 0.145415 -0.034328
v -0.065295 0.145415 0.089871
v 0.105650 0.034328 0.145415
v 0.170946 -0.034328 0.055544
v 0.170946 0.034328 -0.055544
v 0.105650 -0.034328 -0.145415
v -0.000000 0.034328 -0.179743
v -0.105650 -0.034328 -0.145415
v -0.170946 0.034328 -0.055544
v -0.170946 -0.034328 0.055544
v -0.105650 0.034328 0.145415
v -0.000000 -0.034328 0.179743
v 0.105650 -0.145415 0.034328
v 0.065295 -0.145415 -0.089871
v -0.065295 -0.145415 -0.089871
v -0.105650 -0.145415 0.034328
v 0.000000 -0.145415 0.111087
v 0.000000 0.187847 -0.000000
v 0.000000 0.084008 0.168015
v 0.159792 0.084008 0.051920
v 0.098757 0.084008 -0.135927
v -0.098757 0.084008 -0.135927
v -0.159792 0.084008 0.051920
v 0.098757 -0.084008 0.135927
v 0.159792 -0.084008 -0.051920
v 0.000000 -0.084008 -0.168015
v -0.159792 -0.084008 -0.051920
v -0.098757 -0.084008 0.135927
v 0.000000 -0.187847 0.000000
vt 0.4814 0.0310
vt 0.6364 0.2992
vt 0.3266 0.2992
vt 0.4814 0.5674
vt 0.1717 0.5674
vt 0.0168 0.2992
vt 0.1717 0.0310
vt 0.1717 0.0309
vt 0.4814 0.0309
vt 0.3265 0.2991
vt 0.6363 0.2991
vt 0.4814 0.5674
vt 0.1717 0.5674
vt 0.0167 0.2991
vt 0.4814 0.5674
vt 0.1717 0.5674
vt 0.3266 0.2992
vt 0.0168 0.2992
vt 0.1717 0.0310
vt 0.4814 0.0310
vt 0.6364 0.2992
vt 0.4814 0.5674
vt 0.1717 0.5674
vt 0.3265 0.2991
vt 0.0167 0.2991
vt 0.1717 0.0309
vt 0.4814 0.0309
vt 0.6363 0.2991
vt 0.6364 0.2992
vt 0.4814 0.5674
vt 0.3266 0.2992
vt 0.1717 0.5674
vt 0.0168 0.2992
vt 0.1717 0.0310
vt 0.4814 0.0310
vt 0.1718 0.0308
vt 0.4817 0.0309
vt 0.3266 0.2992
vt 0.6363 0.2993
vt 0.4814 0.5674
vt 0.1717 0.5674
vt 0.0168 0.2992
vt 0.1717 0.0309
vt 0.4814 0.0309
vt 0.3265 0.2991
vt 0.6363 0.2991
vt 0.4814 0.5674
vt 0.1717 0.5674
vt 0.0167 0.2991
vt 0.0168 0.2991
vt 0.1717 0.0309
vt 0.3266 0.2991
vt 0.4815 0.0309
vt 0.6364 0.2991
vt 0.4815 0.5674
vt 0.1717 0.5674
vt 0.6364 0.2992
vt 0.4814 0.5674
vt 0.3266 0.2992
vt 0.1717 0.5674
vt 0.0168 0.2992
vt 0.1717 0.0310
vt 0.4814 0.0310
vt 0.6363 0.2991
vt 0.4814 0.5674
vt 0.3265 0.2991
vt 0.1717 0.5674
vt 0.0167 0.2991
vt 0.1717 0.0309
vt 0.4814 0.0309
vt 0.6364 0.2992
vt 0.4814 0.5674
vt 0.3266 0.2992
vt 0.1717 0.5674
vt 0.0168 0.2992
vt 0.1717 0.0310
vt 0.4814 0.0310
vt 0.6364 0.2992
vt 0.4814 0.5674
vt 0.3266 0.2992
vt 0.1717 0.5674
vt 0.0168 0.2992
vt 0.1717 0.0310
vt 0.4814 0.0310
vt 0.4814 0.5674
vt 0.1717 0.5674
vt 0.3266 0.2992
vt 0.0168 0.2992
vt 0.1717 0.0310
vt 0.4814 0.0310
vt 0.6364 0.2992
vt 0.1717 0.0310
vt 0.4814 0.0310
vt 0.3266 0.2992
vt 0.6364 0.2992
vt 0.4814 0.5674
vt 0.1717 0.5674
vt 0.1717 0.0309
vt 0.4815 0.0309
vt 0.3266 0.2991
vt 0.6364 0.2991
vt 0.4815 0.5674
vt 0.1717 0.5674
vt 0.0168 0.2991
vt 0.0168 0.2992
vt 0.1717 0.0310
vt 0.3266 0.2992
vt 0.4814 0.0310
vt 0.6364 0.2992
vt 0.4814 0.5674
vt 0.1717 0.5674
vt 0.1717 0.0309
vt 0.4814 0.0309
vt 0.3265 0.2991
vt 0.6363 0.2991
vt 0.4814 0.5674
vt 0.1717 0.5674
vt 0.0167 0.2991
vt 0.4814 0.0309
vt 0.6363 0.2991
vt 0.3265 0.2991
vt 0.4814 0.5674
vt 0.1717 0.5674
vt 0.0167 0.2991
vt 0.1717 0.0309
vt 0.6364 0.2991
vt 0.4815 0.5674
vt 0.3266 0.2991
vt 0.1717 0.5674
vt 0.0168 0.2991
vt 0.1717 0.0309
vt 0.4815 0.0309
vt 0.0167 0.2991
vt 0.1717 0.0309
vt 0.3265 0.2991
vt 0.4814 0.0309
vt 0.6363 0.2991
vt 0.4814 0.5674
vt 0.1717 0.5674
vt 0.9875 0.8010
vt 0.7355 0.9841
vt 0.7351 0.7189
vt 0.4833 0.8005
vt 0.5787 0.5043
vt 0.8903 0.5044
vt 0.7355 0.9841
vt 0.4833 0.8005
vt 0.7351 0.7189
vt 0.5787 0.5043
vt 0.8903 0.5044
vt 0.9875 0.8010
vt 0.9875 0.8010
vt 0.7355 0.9841
vt 0.7351 0.7189
vt 0.4833 0.8005
vt 0.5787 0.5043
vt 0.8903 0.5044
vt 0.9875 0.8010
vt 0.7355 0.9841
vt 0.7351 0.7189
vt 0.4833 0.8005
vt 0.5787 0.5043
vt 0.8903 0.5044
vt 0.9875 0.8010
vt 0.7355 0.9841
vt 0.7351 0.7189
vt 0.4833 0.8005
vt 0.5787 0.5043
vt 0.8903 0.5044
vt 0.9875 0.8010
vt 0.7355 0.9841
vt 0.7351 0.7189
vt 0.4833 0.8005
vt 0.5787 0.5043
vt 0.8903 0.5044
vt 0.9875 0.8010
vt 0.7355 0.9841
vt 0.7351 0.7189
vt 0.4833 0.8005
vt 0.5787 0.5043
vt 0.8903 0.5044
vt 0.4833 0.8005
vt 0.5787 0.5043
vt 0.7351 0.7189
vt 0.8903 0.5044
vt 0.9875 0.8010
vt 0.7355 0.9841
vt 0.4833 0.8005
vt 0.5787 0.5043
vt 0.7351 0.7189
vt 0.8903 0.5044
vt 0.9875 0.8010
vt 0.7355 0.9841
vt 0.4833 0.8005
vt 0.5787 0.5043
vt 0.7351 0.7189
vt 0.8903 0.5044
vt 0.9875 0.8010
vt 0.7355 0.9841
vt 0.8903 0.5044
vt 0.9875 0.8010
vt 0.7351 0.7189
vt 0.7355 0.9841
vt 0.4833 0.8005
vt 0.5787 0.5043
vt 0.8903 0.5044
vt 0.9875 0.8010
vt 0.7351 0.7189
vt 0.7355 0.9841
vt 0.4833 0.8005
vt 0.5787 0.5043
vn 0.0000 -0.9271 -0.3748
vn -0.3564 -0.9271 -0.1158
vn -0.3568 -0.7946 -0.4911
vn -0.6292 -0.7498 -0.2044
vn -0.6292 -0.5182 -0.5792
vn -0.3564 -0.5182 -0.7774
vn 0.0000 -0.7498 -0.6616
vn -0.2203 -0.9271 0.3032
vn -0.5773 -0.7946 0.1876
vn -0.3889 -0.7498 0.5353
vn -0.7453 -0.5182 0.4194
vn -0.8495 -0.5182 0.0987
vn 0.2203 -0.9271 0.3032
vn 0.0000 -0.7946 0.6070
vn 0.3889 -0.7498 0.5353
vn 0.1686 -0.5182 0.8385
vn -0.1686 -0.5182 0.8385
vn 0.3564 -0.9271 -0.1158
vn 0.5773 -0.7946 0.1876
vn 0.6292 -0.7498 -0.2044
vn 0.8495 -0.5182 0.0987
vn 0.7453 -0.5182 0.4194
vn 0.3568 -0.7946 -0.4911
vn 0.3564 -0.5182 -0.7774
vn 0.6292 -0.5182 -0.5792
vn -0.2203 -0.1434 -0.9648
vn -0.5773 -0.1876 -0.7946
vn -0.8495 -0.1434 -0.5076
vn -0.7453 0.1434 -0.6511
vn -0.3889 0.1434 -0.9100
vn -0.9857 -0.1434 -0.0886
vn -0.9342 0.1876 -0.3035
vn -0.9857 0.1434 0.0886
vn -0.8495 0.5182 -0.0987
vn -0.7453 0.5182 -0.4194
vn -0.9342 -0.1876 0.3035
vn -0.7453 -0.1434 0.6511
vn -0.8495 0.1434 0.5076
vn -0.3889 -0.1434 0.9100
vn -0.5773 0.1876 0.7946
vn -0.2203 0.1434 0.9648
vn -0.3564 0.5182 0.7774
vn -0.6292 0.5182 0.5792
vn 0.0000 -0.1876 0.9822
vn 0.3889 -0.1434 0.9100
vn 0.2203 0.1434 0.9648
vn 0.7453 -0.1434 0.6511
vn 0.5773 0.1876 0.7946
vn 0.8495 0.1434 0.5076
vn 0.6292 0.5182 0.5792
vn 0.3564 0.5182 0.7774
vn 0.9342 -0.1876 0.3035
vn 0.9857 -0.1434 -0.0886
vn 0.9857 0.1434 0.0886
vn 0.8495 -0.1434 -0.5076
vn 0.9342 0.1876 -0.3035
vn 0.7453 0.1434 -0.6511
vn 0.7453 0.5182 -0.4194
vn 0.8495 0.5182 -0.0987
vn 0.5773 -0.1876 -0.7946
vn 0.2203 -0.1434 -0.9648
vn 0.3889 0.1434 -0.9100
vn 0.0000 0.1876 -0.9822
vn -0.1686 0.5182 -0.8385
vn 0.1686 0.5182 -0.8385
vn -0.3889 0.7498 -0.5353
vn -0.5773 0.7946 -0.1876
vn -0.6292 0.7498 0.2044
vn -0.3564 0.9271 0.1158
vn -0.2203 0.9271 -0.3032
vn -0.3568 0.7946 0.4911
vn 0.0000 0.7498 0.6616
vn 0.0000 0.9271 0.3748
vn 0.3568 0.7946 0.4911
vn 0.6292 0.7498 0.2044
vn 0.3564 0.9271 0.1158
vn 0.5773 0.7946 -0.1876
vn 0.3889 0.7498 -0.5353
vn 0.2203 0.9271 -0.3032
vn 0.0000 0.7946 -0.6070
vn 0.0000 -1.0000 0.0000
vn 0.0000 -0.4472 -0.8944
vn -0.8506 -0.4472 -0.2764
vn -0.5257 -0.4472 0.7236
vn 0.5257 -0.4472 0.7236
vn 0.8506 -0.4472 -0.2764
vn -0.5257 0.4472 -0.7236
vn -0.8506 0.4472 0.2764
vn 0.0000 0.4472 0.8944
vn 0.8506 0.4472 0.2764
vn 0.5257 0.4472 -0.7236
vn 0.0000 1.0000 0.0000
s 1
f 1/1/1 3/2/2 61/3/3
f 3/2/2 4/4/4 61/3/3
f 4/4/4 12/5/5 61/3/3
f 12/5/5 11/6/6 61/3/3
f 11/6/6 2/7/7 61/3/3
f 2/7/7 1/1/1 61/3/3
f 3/8/2 5/9/8 62/10/9
f 5/9/8 6/11/10 62/10/9
f 6/11/10 14/12/11 62/10/9
f 14/12/11 13/13/12 62/10/9
f 13/13/12 4/14/4 62/10/9
f 4/14/4 3/8/2 62/10/9
f 5/15/8 7/16/13 63/17/14
f 7/16/13 8/18/15 63/17/14
f 8/18/15 16/19/16 63/17/14
f 16/19/16 15/20/17 63/17/14
f 15/20/17 6/21/10 63/17/14
f 6/21/10 5/15/8 63/17/14
f 7/22/13 9/23/18 64/24/19
f 9/23/18 10/25/20 64/24/19
f 10/25/20 18/26/21 64/24/19
f 18/26/21 17/27/22 64/24/19
f 17/27/22 8/28/15 64/24/19
f 8/28/15 7/22/13 64/24/19
f 9/29/18 1/30/1 65/31/23
f 1/30/1 2/32/7 65/31/23
f 2/32/7 20/33/24 65/31/23
f 20/33/24 19/34/25 65/31/23
f 19/34/25 10/35/20 65/31/23
f 10/35/20 9/29/18 65/31/23
f 21/36/26 11/37/6 66/38/27
f 11/37/6 12/39/5 66/38/27
f 12/39/5 23/40/28 66/38/27
f 23/40/28 24/41/29 66/38/27
f 24/41/29 22/42/30 66/38/27
f 22/42/30 21/36/26 66/38/27
f 23/43/28 25/44/31 67/45/32
f 25/44/31 26/46/33 67/45/32
f 26/46/33 42/47/34 67/45/32
f 42/47/34 41/48/35 67/45/32
f 41/48/35 24/49/29 67/45/32
f 24/49/29 23/43/28 67/45/32
f 25/50/31 13/51/12 68/52/36
f 13/51/12 14/53/11 68/52/36
f 14/53/11 27/54/37 68/52/36
f 27/54/37 28/55/38 68/52/36
f 28/55/38 26/56/33 68/52/36
f 26/56/33 25/50/31 68/52/36
f 27/57/37 29/58/39 69/59/40
f 29/58/39 30/60/41 69/59/40
f 30/60/41 44/61/42 69/59/40
f 44/61/42 43/62/43 69/59/40
f 43/62/43 28/63/38 69/59/40
f 28/63/38 27/57/37 69/59/40
f 29/64/39 15/65/17 70/66/44
f 15/65/17 16/67/16 70/66/44
f 16/67/16 31/68/45 70/66/44
f 31/68/45 32/69/46 70/66/44
f 32/69/46 30/70/41 70/66/44
f 30/70/41 29/64/39 70/66/44
f 31/71/45 33/72/47 71/73/48
f 33/72/47 34/74/49 71/73/48
f 34/74/49 46/75/50 71/73/48
f 46/75/50 45/76/51 71/73/48
f 45/76/51 32/77/46 71/73/48
f 32/77/46 31/71/45 71/73/48
f 33/78/47 17/79/22 72/80/52
f 17/79/22 18/81/21 72/80/52
f 18/81/21 35/82/53 72/80/52
f 35/82/53 36/83/54 72/80/52
f 36/83/54 34/84/49 72/80/52
f 34/84/49 33/78/47 72/80/52
f 35/85/53 37/86/55 73/87/56
f 37/86/55 38/88/57 73/87/56
f 38/88/57 48/89/58 73/87/56
f 48/89/58 47/90/59 73/87/56
f 47/90/59 36/91/54 73/87/56
f 36/91/54 35/85/53 73/87/56
f 37/92/55 19/93/25 74/94/60
f 19/93/25 20/95/24 74/94/60
f 20/95/24 39/96/61 74/94/60
f 39/96/61 40/97/62 74/94/60
f 40/97/62 38/88/57 74/94/60
f 38/88/57 37/92/55 74/94/60
f 39/98/61 21/99/26 75/100/63
f 21/99/26 22/101/30 75/100/63
f 22/101/30 50/102/64 75/100/63
f 50/102/64 49/103/65 75/100/63
f 49/103/65 40/104/62 75/100/63
f 40/104/62 39/98/61 75/100/63
f 51/105/66 41/106/35 76/107/67
f 41/106/35 42/108/34 76/107/67
f 42/108/34 53/109/68 76/107/67
f 53/109/68 54/110/69 76/107/67
f 54/110/69 52/111/70 76/107/67
f 52/111/70 51/105/66 76/107/67
f 53/112/68 43/113/43 77/114/71
f 43/113/43 44/115/42 77/114/71
f 44/115/42 55/116/72 77/114/71
f 55/116/72 56/117/73 77/114/71
f 56/117/73 54/118/69 77/114/71
f 54/118/69 53/112/68 77/114/71
f 55/119/72 45/120/51 78/121/74
f 45/120/51 46/122/50 78/121/74
f 46/122/50 57/123/75 78/121/74
f 57/123/75 58/124/76 78/121/74
f 58/124/76 56/125/73 78/121/74
f 56/125/73 55/119/72 78/121/74
f 57/126/75 47/127/59 79/128/77
f 47/127/59 48/129/58 79/128/77
f 48/129/58 59/130/78 79/128/77
f 59/130/78 60/131/79 79/128/77
f 60/131/79 58/132/76 79/128/77
f 58/132/76 57/126/75 79/128/77
f 59/133/78 49/134/65 80/135/80
f 49/134/65 50/136/64 80/135/80
f 50/136/64 51/137/66 80/135/80
f 51/137/66 52/138/70 80/135/80
f 52/138/70 60/139/79 80/135/80
f 60/139/79 59/133/78 80/135/80
f 3/140/2 1/141/1 81/142/81
f 1/141/1 9/143/18 81/142/81
f 9/143/18 7/144/13 81/142/81
f 7/144/13 5/145/8 81/142/81
f 5/145/8 3/140/2 81/142/81
f 2/146/7 11/147/6 82/148/82
f 11/147/6 21/149/26 82/148/82
f 21/149/26 39/150/61 82/148/82
f 39/150/61 20/151/24 82/148/82
f 20/151/24 2/146/7 82/148/82
f 12/152/5 4/153/4 83/154/83
f 4/153/4 13/155/12 83/154/83
f 13/155/12 25/156/31 83/154/83
f 25/156/31 23/157/28 83/154/83
f 23/157/28 12/152/5 83/154/83
f 14/158/11 6/159/10 84/160/84
f 6/159/10 15/161/17 84/160/84
f 15/161/17 29/162/39 84/160/84
f 29/162/39 27/163/37 84/160/84
f 27/163/37 14/158/11 84/160/84
f 16/164/16 8/165/15 85/166/85
f 8/165/15 17/167/22 85/166/85
f 17/167/22 33/168/47 85/166/85
f 33/168/47 31/169/45 85/166/85
f 31/169/45 16/164/16 85/166/85
f 18/170/21 10/171/20 86/172/86
f 10/171/20 19/173/25 86/172/86
f 19/173/25 37/174/55 86/172/86
f 37/174/55 35/175/53 86/172/86
f 35/175/53 18/170/21 86/172/86
f 22/176/30 24/177/29 87/178/87
f 24/177/29 41/179/35 87/178/87
f 41/179/35 51/180/66 87/178/87
f 51/180/66 50/181/64 87/178/87
f 50/181/64 22/176/30 87/178/87
f 42/182/34 26/183/33 88/184/88
f 26/183/33 28/185/38 88/184/88
f 28/185/38 43/186/43 88/184/88
f 43/186/43 53/187/68 88/184/88
f 53/187/68 42/182/34 88/184/88
f 44/188/42 30/189/41 89/190/89
f 30/189/41 32/191/46 89/190/89
f 32/191/46 45/192/51 89/190/89
f 45/192/51 55/193/72 89/190/89
f 55/193/72 44/188/42 89/190/89
f 46/194/50 34/195/49 90/196/90
f 34/195/49 36/197/54 90/196/90
f 36/197/54 47/198/59 90/196/90
f 47/198/59 57/199/75 90/196/90
f 57/199/75 46/194/50 90/196/90
f 48/200/58 38/201/57 91/202/91
f 38/201/57 40/203/62 91/202/91
f 40/203/62 49/204/65 91/202/91
f 49/204/65 59/205/78 91/202/91
f 59/205/78 48/200/58 91/202/91
f 52/206/70 54/207/69 92/208/92
f 54/207/69 56/209/73 92/208/92
f 56/209/73 58/210/76 92/208/92
f 58/210/76 60/211/79 92/208/92
f 60/211/79 52/206/70 92/208/92
