# Blender v2.78 (sub 0) OBJ File: 'Room.blend'
# www.blender.org
o Cube_Cube.011
v -0.450000 2.000000 1.005789
v -0.450000 2.000000 0.005789
v 0.450000 2.000000 1.005789
v 0.450000 2.000000 0.005789
v -0.450000 0.200000 1.005789
v -0.450000 0.200000 0.005789
v 0.450000 0.200000 0.005789
v 0.450000 0.200000 1.005789
v -0.405000 0.000000 0.055789
v -0.405000 0.000000 0.955789
v -0.405000 0.200000 0.055789
v 0.405000 0.000000 0.055789
v 0.405000 0.200000 0.055789
v 0.405000 0.000000 0.955789
v 0.405000 0.200000 0.955789
v -0.405000 0.200000 0.955789
v -0.080000 0.200000 1.105789
v -0.273775 0.200000 1.071057
v -0.273775 2.000000 1.071057
v -0.080000 2.000000 1.105789
v 0.080000 2.000000 1.105789
v 0.273775 2.000000 1.071057
v 0.273775 0.200000 1.071057
v 0.080000 0.200000 1.105789
vt 0.4870 0.0129
vt 0.4870 0.6513
vt 0.1323 0.6513
vt 0.1323 0.0129
vt 0.4870 0.0129
vt 0.4870 0.6513
vt 0.1323 0.6513
vt 0.1323 0.0129
vt 0.8554 0.6704
vt 0.8554 0.9896
vt 0.5007 0.9896
vt 0.5007 0.6704
vt 0.2616 0.9805
vt 0.2616 0.6613
vt 0.2793 0.6773
vt 0.2793 0.9646
vt 0.2616 0.9805
vt 0.2616 0.6613
vt 0.2793 0.6773
vt 0.2793 0.9646
vt 0.2616 0.9805
vt 0.2616 0.6613
vt 0.2793 0.6773
vt 0.2793 0.9646
vt 0.2616 0.9805
vt 0.2616 0.6613
vt 0.2793 0.6773
vt 0.2793 0.9646
vt 0.3503 0.9646
vt 0.3503 0.6773
vt 0.3503 0.9646
vt 0.3503 0.6773
vt 0.3503 0.9646
vt 0.3503 0.6773
vt 0.3503 0.9646
vt 0.3503 0.6773
vt 0.2385 0.9180
vt 0.2385 0.7238
vt 0.4776 0.9271
vt 0.4776 0.7329
vt 0.4653 0.8584
vt 0.4653 0.8016
vt 0.2261 0.8493
vt 0.2261 0.7925
vt 0.7157 0.0129
vt 0.7157 0.6513
vt 0.6590 0.6513
vt 0.6590 0.0129
vt 0.8522 0.0129
vt 0.8522 0.6513
vt 0.7855 0.6513
vt 0.7855 0.0129
vt 0.5891 0.6513
vt 0.5891 0.0129
vt 0.5225 0.6513
vt 0.5225 0.0129
vn -1.0000 0.0000 0.0000
vn 1.0000 0.0000 0.0000
vn 0.0000 1.0000 0.0000
vn 0.0000 -1.0000 -0.0000
vn 0.0000 0.0000 1.0000
vn 0.0000 0.0000 -1.0000
vn 0.0643 -0.6877 0.7231
vn 0.0643 0.6877 0.7231
vn -0.0643 0.6877 0.7231
vn -0.0643 -0.6877 0.7231
vn 0.6576 -0.5983 0.4577
vn 0.6576 0.5983 0.4577
vn 0.1909 0.6877 0.7004
vn 0.1909 -0.6877 0.7004
vn -0.1909 0.6877 0.7004
vn -0.1909 -0.6877 0.7004
vn -0.6576 0.5983 0.4577
vn -0.6576 -0.5983 0.4577
s off
f 5/1/1 1/2/1 2/3/1 6/4/1
f 7/5/2 4/6/2 3/7/2 8/8/2
f 4/9/3 2/10/3 1/11/3 3/12/3
f 8/13/4 5/14/4 16/15/4 15/16/4
f 6/17/4 7/18/4 13/19/4 11/20/4
f 7/21/4 8/22/4 15/23/4 13/24/4
f 5/25/4 6/26/4 11/27/4 16/28/4
f 14/29/5 15/16/5 16/15/5 10/30/5
f 12/31/2 13/24/2 15/23/2 14/32/2
f 9/33/6 11/20/6 13/19/6 12/34/6
f 10/35/1 16/28/1 11/27/1 9/36/1
f 5/14/4 8/13/4 23/37/4 18/38/4
f 3/12/3 1/11/3 19/39/3 22/40/3
f 22/40/3 19/39/3 20/41/3 21/42/3
f 18/38/4 23/37/4 24/43/4 17/44/4
s 3
f 24/45/7 21/46/8 20/47/9 17/48/10
f 8/49/11 3/50/12 22/51/13 23/52/14
f 17/48/10 20/47/9 19/53/15 18/54/16
f 21/46/8 24/45/7 23/52/14 22/51/13
f 1/55/17 5/56/18 18/54/16 19/53/15
