# Blender v2.78 (sub 0) OBJ File: 'Room.blend'
# www.blender.org
o Cube.001_Cube.006
v -0.046521 0.125000 -0.186084
v -0.028646 0.119466 0.186700
v -0.085000 0.000000 0.200000
v -0.200000 0.000000 0.050000
v -0.142145 0.000000 0.147816
v -0.200000 0.000000 -0.050000
v -0.050000 0.000000 -0.200000
v -0.156066 0.000000 -0.156066
v 0.200000 0.000000 0.050000
v 0.085000 0.000000 0.200000
v 0.142145 0.000000 0.147816
v 0.050000 0.000000 -0.200000
v 0.200000 0.000000 -0.050000
v 0.156066 0.000000 -0.156066
v 0.046521 0.125000 -0.186084
v 0.028646 0.119466 0.186700
v 0.000256 0.016000 -0.002841
v 0.134077 0.125000 -0.134199
v 0.146756 0.107166 -0.146756
v 0.173447 0.108943 -0.043498
v 0.189876 0.090938 -0.047469
v -0.173386 0.108943 -0.043493
v -0.191067 0.080237 -0.047767
v -0.147677 0.096567 -0.147677
v -0.134021 0.125000 -0.134182
v -0.191067 0.080237 0.047767
v -0.173386 0.108943 0.043210
v -0.125646 0.123394 0.117210
v -0.144073 0.074554 0.125717
v -0.045223 0.182923 0.180893
v -0.041651 0.196578 0.164684
v -0.093209 0.161526 0.150466
v -0.094282 0.171337 0.139741
v -0.040124 0.221008 -0.179353
v -0.044208 0.208103 -0.204380
v -0.093386 0.177992 -0.178782
v -0.094469 0.185187 -0.161621
v 0.041687 0.196578 0.164684
v 0.045223 0.182923 0.180893
v 0.090692 0.160315 0.150843
v 0.089045 0.171332 0.141577
v 0.044208 0.208103 -0.204380
v 0.040166 0.221008 -0.179353
v 0.113643 0.165589 -0.171915
v 0.103624 0.179223 -0.158673
v 0.138977 0.083921 0.131983
v 0.125685 0.123394 0.117209
v 0.189876 0.090938 0.047469
v 0.173447 0.108943 0.043216
v 0.096345 0.109280 -0.096931
v 0.112818 0.125000 -0.113171
v 0.123807 0.094539 -0.031616
v 0.145987 0.108943 -0.036892
v -0.123579 0.094443 -0.031604
v -0.145899 0.108943 -0.036899
v -0.112724 0.125000 -0.113191
v -0.096136 0.109173 -0.096895
v -0.145899 0.108943 0.036079
v -0.123579 0.094443 0.030229
v -0.090095 0.107754 0.083541
v -0.105709 0.123394 0.098359
v -0.034272 0.191352 0.130641
v -0.029990 0.170018 0.111936
v -0.079346 0.166686 0.117374
v -0.068167 0.146398 0.100587
v -0.029372 0.188385 -0.137083
v -0.034205 0.214470 -0.156060
v -0.079797 0.178250 -0.139757
v -0.068545 0.154205 -0.123031
v 0.030158 0.170018 0.111936
v 0.034391 0.191352 0.130641
v 0.075048 0.166692 0.118969
v 0.064533 0.146411 0.101938
v 0.034316 0.214470 -0.156060
v 0.029540 0.188385 -0.137083
v 0.087432 0.172203 -0.137022
v 0.075182 0.148568 -0.120687
v 0.105822 0.123394 0.098357
v 0.090281 0.107793 0.083554
v 0.145987 0.108943 0.036073
v 0.123807 0.094539 0.030243
v 0.051726 0.025763 -0.053240
v 0.087623 0.068551 -0.088390
v 0.073282 0.042536 -0.074348
v 0.066875 0.025763 -0.018357
v 0.115917 0.067462 -0.029779
v 0.095532 0.042217 -0.025031
v -0.066545 0.025763 -0.018357
v -0.115699 0.067426 -0.029774
v -0.095273 0.042206 -0.025029
v -0.087407 0.068517 -0.088378
v -0.051395 0.025763 -0.053240
v -0.073024 0.042526 -0.074344
v -0.115699 0.067426 0.028125
v -0.066545 0.025763 0.014998
v -0.095273 0.042206 0.022670
v -0.048176 0.025763 0.043463
v -0.082094 0.068401 0.075891
v -0.068501 0.042492 0.062896
v -0.025806 0.069738 0.096059
v -0.015736 0.025763 0.057845
v -0.022116 0.042883 0.082057
v -0.059906 0.069384 0.088099
v -0.036116 0.025763 0.052139
v -0.050887 0.042780 0.074467
v -0.015365 0.025763 -0.063801
v -0.024864 0.069868 -0.100867
v -0.021499 0.042922 -0.087736
v -0.059306 0.069584 -0.090771
v -0.036243 0.025763 -0.056724
v -0.050829 0.042838 -0.078257
v 0.016066 0.025763 0.057845
v 0.026022 0.069738 0.096059
v 0.022374 0.042883 0.082057
v 0.056770 0.069385 0.089283
v 0.034423 0.025763 0.052855
v 0.048298 0.042780 0.075474
v 0.025084 0.069868 -0.100867
v 0.015696 0.025763 -0.063801
v 0.021758 0.042922 -0.087736
v 0.065409 0.069513 -0.089124
v 0.040053 0.025763 -0.055545
v 0.056018 0.042818 -0.076687
v 0.082305 0.068426 0.075899
v 0.048506 0.025763 0.043463
v 0.068757 0.042499 0.062898
v 0.115917 0.067462 0.028131
v 0.066875 0.025763 0.014998
v 0.095532 0.042217 0.022672
v 0.072426 0.027000 0.218434
v -0.072427 0.027000 0.218434
v -0.046704 0.041464 0.240763
v -0.025247 0.083824 0.229186
v 0.024857 0.083824 0.229186
v -0.092809 0.066016 0.204211
v 0.088343 0.072011 0.208221
v 0.046313 0.041464 0.240763
v -0.041368 0.044376 0.286907
v -0.029940 0.081584 0.280706
v 0.029550 0.081584 0.280706
v -0.104131 0.065642 0.251960
v 0.099665 0.072386 0.256471
v 0.040978 0.044376 0.286907
v -0.039383 0.059477 0.338443
v -0.038409 0.091403 0.358706
v 0.037416 0.091403 0.358706
v -0.115755 0.069170 0.283470
v 0.110685 0.076663 0.288482
v 0.038390 0.059477 0.338443
v 0.048260 0.062500 -0.193042
v -0.048260 0.062500 -0.193042
v 0.151411 0.053583 -0.151411
v 0.194938 0.045469 -0.048734
v 0.194938 0.045469 0.048734
v -0.195534 0.040119 0.048883
v -0.195534 0.040119 -0.048883
v -0.151871 0.048284 -0.151871
v -0.143109 0.037277 0.136767
v 0.140561 0.041961 0.139899
v -0.244451 0.075397 -0.077767
v -0.244451 0.075397 0.017767
v 0.243157 0.086098 -0.077469
v 0.193483 0.100703 -0.134519
v -0.194465 0.090094 -0.135377
v 0.243157 0.086098 0.017469
v -0.233777 0.050177 0.027883
v 0.181169 0.063641 -0.148775
v 0.233227 0.055527 -0.069734
v 0.233227 0.055527 0.027734
v -0.233777 0.050177 -0.069883
v -0.181557 0.058342 -0.149236
vt 0.1804 0.3230
vt 0.1823 0.2497
vt 0.2122 0.2565
vt 0.2116 0.3153
vt 0.4487 0.4689
vt 0.3529 0.4744
vt 0.3579 0.4433
vt 0.4400 0.4394
vt 0.5977 0.2678
vt 0.5992 0.3062
vt 0.5853 0.3049
vt 0.5849 0.2697
vt 0.7396 0.8404
vt 0.7570 0.9273
vt 0.6428 0.9297
vt 0.6552 0.8391
vt 0.5886 0.3480
vt 0.5552 0.4190
vt 0.5274 0.3950
vt 0.5695 0.3414
vt 0.4528 0.1039
vt 0.5590 0.1601
vt 0.5298 0.1829
vt 0.4430 0.1340
vt 0.5869 0.2229
vt 0.5674 0.2293
vt 0.4083 0.6753
vt 0.4093 0.7429
vt 0.3805 0.7343
vt 0.3813 0.6845
vt 0.2554 0.1436
vt 0.3538 0.0971
vt 0.3589 0.1289
vt 0.2776 0.1709
vt 0.2098 0.2034
vt 0.2321 0.2171
vt 0.0847 0.7703
vt 0.0393 0.7773
vt 0.0235 0.6634
vt 0.0774 0.6584
vt 0.0814 0.4499
vt 0.0184 0.4481
vt 0.0235 0.3332
vt 0.0721 0.3376
vt 0.2541 0.4293
vt 0.2771 0.4014
vt 0.5692 0.9171
vt 0.4726 0.8371
vt 0.1445 0.4516
vt 0.1445 0.5449
vt 0.0814 0.5466
vt 0.7295 0.1665
vt 0.7760 0.1791
vt 0.7781 0.3935
vt 0.7335 0.4071
vt 0.4597 0.0758
vt 0.3513 0.0690
vt 0.3883 0.0100
vt 0.4980 0.0145
vt 0.1190 0.0288
vt 0.1532 0.0476
vt 0.1367 0.1375
vt 0.0971 0.1290
vt 0.2112 0.3723
vt 0.2327 0.3586
vt 0.5298 0.2995
vt 0.5160 0.2629
vt 0.4779 0.2839
vt 0.4714 0.3114
vt 0.6152 0.3084
vt 0.6870 0.3555
vt 0.5727 0.4557
vt 0.6028 0.3514
vt 0.9053 0.8411
vt 0.8239 0.9105
vt 0.7272 0.5204
vt 0.6907 0.4905
vt 0.5986 0.2111
vt 0.5771 0.1339
vt 0.6992 0.2245
vt 0.6127 0.2647
vt 0.0393 0.2192
vt 0.0793 0.2254
vt 0.1245 0.9705
vt 0.0848 0.9865
vt 0.0575 0.8759
vt 0.1024 0.8664
vt 0.7350 0.7592
vt 0.8225 0.7735
vt 0.2588 0.7448
vt 0.2485 0.7417
vt 0.2856 0.7086
vt 0.3588 0.8669
vt 0.3088 0.9161
vt 0.3027 0.7948
vt 0.3361 0.7859
vt 0.2167 0.5589
vt 0.2563 0.5278
vt 0.2674 0.6234
vt 0.2398 0.6303
vt 0.3119 0.7458
vt 0.2948 0.7507
vt 0.2733 0.7502
vt 0.2064 0.8674
vt 0.1881 0.8067
vt 0.2126 0.7745
vt 0.2335 0.7840
vt 0.2762 0.6668
vt 0.2977 0.6677
vt 0.3100 0.6714
vt 0.3195 0.6779
vt 0.2393 0.7174
vt 0.2537 0.6756
vt 0.2623 0.6701
vt 0.3311 0.7207
vt 0.3200 0.7442
vt 0.3320 0.6975
vt 0.1604 0.7334
vt 0.1893 0.7272
vt 0.2400 0.6943
vt 0.3774 0.6124
vt 0.3539 0.6445
vt 0.3747 0.8145
vt 0.3534 0.7798
vt 0.1663 0.6671
vt 0.1921 0.6779
vt 0.3235 0.5278
vt 0.3583 0.5601
vt 0.3336 0.6322
vt 0.3087 0.6250
vt 0.2008 0.6077
vt 0.2218 0.6403
vt 0.2437 0.9118
vt 0.2617 0.7935
vt 0.2525 0.4938
vt 0.1993 0.3816
vt 0.1611 0.3311
vt 0.1611 0.2405
vt 0.2005 0.1919
vt 0.2426 0.0924
vt 0.4562 0.5072
vt 0.3497 0.5115
vt 0.2598 0.3516
vt 0.3035 0.3810
vt 0.2370 0.3127
vt 0.5440 0.3401
vt 0.5659 0.3053
vt 0.4992 0.3781
vt 0.5409 0.2310
vt 0.5010 0.1985
vt 0.5678 0.2695
vt 0.2598 0.2243
vt 0.2364 0.2588
vt 0.3033 0.1910
vt 0.3654 0.4140
vt 0.4302 0.4100
vt 0.3663 0.1587
vt 0.4324 0.1635
vt 0.0184 0.5484
vt 0.2382 0.6589
vt 0.2511 0.6512
vt 0.2717 0.6462
vt 0.2674 0.7707
vt 0.2459 0.7632
vt 0.2306 0.7577
vt 0.3244 0.7646
vt 0.3367 0.7615
vt 0.2989 0.7715
vt 0.3033 0.6476
vt 0.3216 0.6529
vt 0.3361 0.6623
vt 0.2157 0.7219
vt 0.2168 0.6866
vt 0.3558 0.6915
vt 0.3543 0.7270
vt 0.5638 0.7679
vt 0.6631 0.7582
vt 0.8172 0.2151
vt 0.8167 0.3573
vt 0.7714 0.0188
vt 0.7278 0.0497
vt 0.8152 0.1285
vt 0.8719 0.1440
vt 0.8817 0.2347
vt 0.5624 0.7087
vt 0.6632 0.6862
vt 0.8072 0.4440
vt 0.8787 0.3398
vt 0.8609 0.4322
vt 0.7624 0.5507
vt 0.8296 0.7156
vt 0.7410 0.6894
vt 0.7529 0.5917
vt 0.8411 0.6764
vt 0.9445 0.2451
vt 0.9441 0.3322
vt 0.9150 0.1434
vt 0.9889 0.2422
vt 0.9903 0.3346
vt 0.9028 0.4361
vt 0.6617 0.5860
vt 0.5546 0.6678
vt 0.1313 0.6535
vt 0.1643 0.9545
vt 0.1472 0.8568
vt 0.5643 0.0771
vt 0.0848 0.0100
vt 0.0575 0.1206
vt 0.1206 0.3421
vt 0.2648 0.3007
vt 0.2796 0.2558
vt 0.3055 0.2722
vt 0.4779 0.2839
vt 0.4714 0.3114
vt 0.3833 0.3208
vt 0.3895 0.2957
vt 0.6828 0.0800
vt 0.3895 0.2957
vt 0.3833 0.3208
vt 0.3118 0.3076
vt 0.3055 0.2722
vt 0.3118 0.3076
vt 0.5160 0.2629
vt 0.5298 0.2995
vt 0.4009 0.2565
vt 0.2963 0.2441
vt 0.4009 0.2565
vt 0.4926 0.2441
vt 0.2963 0.2441
vt 0.2796 0.2558
vt 0.2648 0.3007
vt 0.4914 0.5679
vt 0.3843 0.5696
vt 0.5581 0.5096
vt 0.4926 0.2441
vn -0.2532 0.9345 0.2501
vn 0.2705 0.9310 0.2450
vn 0.1482 0.8629 -0.4830
vn -0.1284 0.8665 -0.4823
vn -0.5527 0.8320 -0.0473
vn -0.5719 0.8105 0.1264
vn 0.1857 0.9711 -0.1501
vn 0.2070 0.9690 0.1345
vn 0.2768 0.9597 -0.0478
vn -0.2803 0.9584 -0.0539
vn -0.1625 0.8029 0.5736
vn 0.1598 0.8006 0.5775
vn 0.2566 0.4570 0.8516
vn 0.3247 0.4389 0.8378
vn -0.3177 0.4315 0.8443
vn -0.2763 0.4403 0.8542
vn -0.6800 0.7245 0.1128
vn -0.7207 0.6931 0.0138
vn -0.1530 0.8267 0.5414
vn -0.3560 0.6528 0.6686
vn 0.4671 0.8838 -0.0246
vn 0.6703 0.7248 0.1593
vn 0.1523 0.8192 0.5529
vn -0.2068 0.9691 0.1345
vn 0.6437 0.7476 0.1635
vn 0.3581 0.6427 0.6773
vn -0.7310 0.6212 -0.2823
vn -0.7606 0.6117 0.2175
vn -0.8675 0.4552 0.2004
vn -0.8486 0.4547 -0.2703
vn 0.6889 0.7167 0.1083
vn 0.5058 0.8550 0.1143
vn -0.1856 0.9711 -0.1500
vn 0.1682 0.8216 -0.5447
vn 0.6551 0.7552 0.0199
vn 0.3566 0.7158 -0.6004
vn 0.7827 -0.5948 -0.1833
vn 0.9743 0.1139 -0.1945
vn 0.7018 0.1219 -0.7018
vn 0.5046 -0.0741 -0.8602
vn -0.1938 0.1139 -0.9744
vn -0.1945 0.1139 -0.9743
vn -0.7018 0.1219 -0.7018
vn -0.5046 -0.0741 -0.8601
vn -0.7324 0.6723 0.1072
vn -0.1861 0.8046 -0.5639
vn -0.6721 0.3240 0.6658
vn -0.7705 0.2696 0.5776
vn -0.1838 -0.0519 -0.9816
vn 0.1812 -0.0595 -0.9816
vn 0.1938 0.1139 -0.9744
vn 0.5244 -0.1906 0.8299
vn 0.4978 -0.3586 0.7897
vn -0.4947 -0.3798 0.7816
vn -0.5264 -0.1845 0.8300
vn 0.4051 0.9141 -0.0157
vn 0.7164 0.5293 0.4546
vn 0.7976 0.5026 0.3335
vn 0.8382 0.4792 -0.2603
vn -0.7946 0.1233 0.5945
vn -0.7535 0.4723 0.4572
vn -0.8761 -0.0583 0.4786
vn -0.6698 0.7424 0.0119
vn -0.3509 0.7112 -0.6091
vn 0.8759 -0.0593 0.4788
vn 0.6934 -0.5372 0.4801
vn -0.2928 0.4489 -0.8442
vn -0.5496 0.4196 -0.7224
vn -0.6597 0.3250 -0.6777
vn 0.7577 0.2961 0.5815
vn 0.6771 0.3366 0.6544
vn -0.7819 0.0799 0.6183
vn 0.7473 0.3144 -0.5853
vn 0.5557 0.4689 -0.6864
vn 0.2930 0.4501 -0.8435
vn -0.9743 0.1139 -0.1945
vn -0.7828 -0.5946 -0.1834
vn 0.7936 0.1131 0.5978
vn 0.7864 0.0776 0.6128
vn 0.9574 0.1186 0.2633
vn 0.1415 0.9443 0.2970
vn 0.7570 0.3647 0.5421
vn 0.0948 0.9308 0.3531
vn 0.2145 0.9298 0.2990
vn -0.0002 1.0000 -0.0011
vn 0.0238 0.4601 0.8875
vn 0.0314 0.4703 0.8820
vn -0.1037 0.3826 0.9180
vn -0.1596 0.4042 0.9006
vn -0.0175 0.4157 -0.9093
vn -0.0074 0.4603 -0.8877
vn 0.1055 0.3210 -0.9412
vn 0.3164 0.3561 -0.8792
vn -0.0895 0.9304 0.3553
vn -0.0597 0.9202 0.3868
vn 0.0598 0.9202 0.3869
vn -0.0214 0.4572 0.8891
vn 0.3729 0.5678 0.7338
vn 0.5375 0.4545 0.7103
vn 0.1733 0.4030 0.8986
vn 0.0483 0.9225 -0.3829
vn -0.0468 0.9225 -0.3829
vn -0.1448 0.9280 -0.3431
vn -0.2487 0.9339 -0.2568
vn 0.3349 0.9395 0.0714
vn 0.2512 0.9349 -0.2505
vn 0.1509 0.9282 -0.3402
vn -0.3358 0.9392 0.0715
vn -0.2082 0.9285 0.3073
vn -0.3338 0.9370 -0.1026
vn 0.7606 0.6117 0.2175
vn 0.8672 0.4560 0.2003
vn 0.3330 0.9373 -0.1024
vn -0.4001 0.4964 -0.7704
vn -0.5874 0.4141 -0.6953
vn -0.3778 0.5683 0.7309
vn -0.5325 0.4557 0.7132
vn 0.7310 0.6211 -0.2824
vn 0.8483 0.4554 -0.2701
vn 0.0253 0.4607 -0.8872
vn 0.0115 0.4172 -0.9087
vn -0.3036 0.3551 -0.8841
vn -0.0993 0.3208 -0.9419
vn 0.4035 0.4889 -0.7734
vn 0.5924 0.4156 -0.6902
vn -0.0319 0.4706 0.8818
vn 0.1050 0.3806 0.9187
vn -0.4760 0.8788 -0.0322
vn 0.1945 0.1139 -0.9743
vn 0.4705 0.7246 -0.5035
vn 0.2777 0.6878 -0.6706
vn 0.0920 0.6601 -0.7454
vn 0.1146 0.6457 0.7549
vn 0.1640 0.6704 0.7236
vn 0.3909 0.7219 0.5710
vn -0.1481 0.6678 0.7294
vn -0.3763 0.7199 0.5832
vn -0.1140 0.6464 0.7544
vn -0.0882 0.6601 -0.7459
vn -0.2663 0.6867 -0.6763
vn -0.4652 0.7227 -0.5112
vn 0.6431 0.7520 0.1445
vn 0.6305 0.7501 -0.1992
vn -0.6315 0.7493 -0.1994
vn -0.6441 0.7512 0.1447
vn -0.7817 0.3128 0.5394
vn -0.1789 0.9391 0.2933
vn 0.2999 -0.8992 0.3186
vn -0.2439 -0.9217 0.3017
vn 0.9872 0.1591 0.0092
vn 0.2203 -0.9650 0.1422
vn -0.9980 0.0628 0.0041
vn -0.0906 0.9935 -0.0686
vn -0.1678 -0.9751 0.1447
vn 0.0539 0.9964 -0.0646
vn 0.3103 0.4870 0.8163
vn 0.9539 0.1791 0.2409
vn 0.2690 -0.7606 0.5908
vn -0.2496 -0.7602 0.5998
vn -0.3206 0.4922 0.8093
vn -0.9665 0.0979 0.2373
vn 0.5503 0.6457 -0.5293
vn -0.9574 0.1187 0.2631
vn -0.4101 -0.4533 -0.7914
vn -0.6758 -0.5472 0.4937
vn -0.8199 0.4715 0.3247
vn -0.8498 0.4527 -0.2701
vn -0.6733 -0.7010 -0.2351
vn 0.6992 -0.6727 -0.2418
vn -0.5645 0.6312 -0.5318
vn 0.4165 -0.4532 -0.7881
s 1
f 31/1/1 38/2/2 71/3/3 62/4/4
f 22/5/5 27/6/6 58/7/7 55/8/8
f 43/9/9 34/10/10 67/11/11 74/12/12
f 16/13/13 39/14/14 30/15/15 2/16/16
f 37/17/17 25/18/18 56/19/19 68/20/20
f 25/18/18 22/5/5 55/8/8 56/19/19
f 20/21/21 18/22/22 51/23/23 53/24/24
f 18/22/22 45/25/25 76/26/26 51/23/23
f 81/27/27 52/28/28 86/29/29 127/30/30
f 47/31/31 49/32/32 80/33/33 78/34/34
f 38/2/2 41/35/35 72/36/36 71/3/3
f 153/37/37 13/38/38 14/39/39 152/40/40
f 151/41/41 7/42/42 8/43/43 157/44/44
f 27/6/6 28/45/45 61/46/46 58/7/7
f 2/16/16 30/15/15 32/47/47 29/48/48
f 151/41/41 1/49/49 15/50/50 150/51/51
f 49/32/32 20/21/21 53/24/24 80/33/33
f 10/52/52 130/53/53 131/54/54 3/55/55
f 21/56/56 48/57/57 165/58/58 162/59/59
f 158/60/60 29/61/48 26/62/61 155/63/62
f 33/64/63 31/1/1 62/4/4 64/65/64
f 34/10/10 37/17/17 68/20/20 67/11/11
f 41/35/35 47/31/31 78/34/34 72/36/36
f 48/66/57 154/67/65 169/68/66 165/69/58
f 35/70/67 1/71/49 24/72/68 36/73/69
f 39/14/14 16/13/13 46/74/70 40/75/71
f 3/55/55 131/54/54 158/76/60 5/77/72
f 45/25/25 43/9/9 74/12/12 76/26/26
f 28/45/45 33/64/63 64/65/64 61/46/46
f 44/78/73 19/79/74 15/80/50 42/81/75
f 157/44/44 8/43/43 6/82/76 156/83/77
f 1/71/49 35/70/67 42/81/75 15/80/50
f 159/84/78 11/85/79 9/86/80 154/87/65
f 46/74/70 16/13/13 134/88/81 136/89/82
f 110/90/83 92/91/84 17/92/85
f 77/93/86 75/94/87 118/95/88 121/96/89
f 65/97/90 63/98/91 100/99/92 103/100/93
f 122/101/94 119/102/95 17/92/85
f 106/103/96 110/90/83 17/92/85
f 69/104/97 57/105/98 91/106/99 109/107/100
f 101/108/101 112/109/102 17/92/85
f 112/109/102 116/110/103 17/92/85
f 116/110/103 125/111/104 17/92/85
f 119/102/95 106/103/96 17/92/85
f 92/91/84 88/112/105 17/92/85
f 97/113/106 104/114/107 17/92/85
f 85/115/108 82/116/109 17/92/85
f 128/117/110 85/115/108 17/92/85
f 57/105/98 54/118/111 89/119/112 91/106/99
f 95/120/113 97/113/106 17/92/85
f 79/121/114 81/27/27 127/30/30 124/122/115
f 52/28/28 50/123/116 83/124/117 86/29/29
f 50/123/116 77/93/86 121/96/89 83/124/117
f 125/111/104 128/117/110 17/92/85
f 54/118/111 59/125/118 94/126/119 89/119/112
f 70/127/120 73/128/121 115/129/122 113/130/123
f 59/125/118 60/131/124 98/132/125 94/126/119
f 73/128/121 79/121/114 124/122/115 115/129/122
f 60/131/124 65/97/90 103/100/93 98/132/125
f 88/112/105 95/120/113 17/92/85
f 104/114/107 101/108/101 17/92/85
f 63/98/91 70/127/120 113/130/123 100/99/92
f 66/133/126 69/104/97 109/107/100 107/134/127
f 75/94/87 66/133/126 107/134/127 118/95/88
f 33/64/63 28/45/45 29/135/48 32/136/47
f 31/1/1 33/64/63 32/136/47 30/137/15
f 37/17/17 34/10/10 35/70/67 36/73/69
f 25/18/18 37/17/17 36/73/69 24/72/68
f 19/79/74 44/78/73 45/25/25 18/22/22
f 43/9/9 45/25/25 44/78/73 42/81/75
f 41/35/35 38/2/2 39/138/14 40/139/71
f 47/31/31 41/35/35 40/139/71 46/140/70
f 38/2/2 31/1/1 30/137/15 39/138/14
f 34/10/10 43/9/9 42/81/75 35/70/67
f 27/6/6 22/5/5 23/141/128 26/142/61
f 46/140/70 48/57/57 49/32/32 47/31/31
f 21/56/56 19/79/74 18/22/22 20/21/21
f 24/72/68 23/141/128 22/5/5 25/18/18
f 28/45/45 27/6/6 26/142/61 29/135/48
f 20/21/21 49/32/32 48/57/57 21/56/56
f 65/143/90 60/144/124 61/46/46 64/65/64
f 63/145/91 65/143/90 64/65/64 62/4/4
f 69/146/97 66/147/126 67/11/11 68/20/20
f 57/148/98 69/146/97 68/20/20 56/19/19
f 51/23/23 76/26/26 77/149/86 50/150/116
f 75/151/87 77/149/86 76/26/26 74/12/12
f 73/152/121 70/153/120 71/3/3 72/36/36
f 79/154/114 73/152/121 72/36/36 78/34/34
f 70/153/120 63/145/91 62/4/4 71/3/3
f 66/147/126 75/151/87 74/12/12 67/11/11
f 59/155/118 54/156/111 55/8/8 58/7/7
f 78/34/34 80/33/33 81/157/27 79/154/114
f 53/24/24 51/23/23 50/150/116 52/158/28
f 56/19/19 55/8/8 54/156/111 57/148/98
f 60/144/124 59/155/118 58/7/7 61/46/46
f 52/158/28 81/157/27 80/33/33 53/24/24
f 152/40/40 14/39/39 12/159/129 150/51/51
f 104/114/107 97/113/106 99/160/130 105/161/131
f 105/161/131 99/160/130 98/132/125 103/100/93
f 101/108/101 104/114/107 105/161/131 102/162/132
f 102/162/132 105/161/131 103/100/93 100/99/92
f 110/90/83 106/103/96 108/163/133 111/164/134
f 111/164/134 108/163/133 107/134/127 109/107/100
f 92/91/84 110/90/83 111/164/134 93/165/135
f 93/165/135 111/164/134 109/107/100 91/106/99
f 83/124/117 121/96/89 123/166/136 84/167/137
f 84/167/137 123/166/136 122/101/94 82/116/109
f 119/102/95 122/101/94 123/166/136 120/168/138
f 120/168/138 123/166/136 121/96/89 118/95/88
f 116/110/103 112/109/102 114/169/139 117/170/140
f 117/170/140 114/169/139 113/130/123 115/129/122
f 125/111/104 116/110/103 117/170/140 126/171/141
f 126/171/141 117/170/140 115/129/122 124/122/115
f 112/109/102 101/108/101 102/162/132 114/169/139
f 114/169/139 102/162/132 100/99/92 113/130/123
f 106/103/96 119/102/95 120/168/138 108/163/133
f 108/163/133 120/168/138 118/95/88 107/134/127
f 95/120/113 88/112/105 90/172/142 96/173/143
f 96/173/143 90/172/142 89/119/112 94/126/119
f 124/122/115 127/30/30 129/174/144 126/171/141
f 126/171/141 129/174/144 128/117/110 125/111/104
f 86/29/29 83/124/117 84/167/137 87/175/145
f 87/175/145 84/167/137 82/116/109 85/115/108
f 91/106/99 89/119/112 90/172/142 93/165/135
f 93/165/135 90/172/142 88/112/105 92/91/84
f 97/113/106 95/120/113 96/173/143 99/160/130
f 99/160/130 96/173/143 94/126/119 98/132/125
f 85/115/108 128/117/110 129/174/144 87/175/145
f 87/175/145 129/174/144 127/30/30 86/29/29
f 82/116/109 122/101/94 17/92/85
f 2/16/16 29/48/48 135/176/146 133/177/147
f 131/54/54 130/53/53 137/178/148 132/179/149
f 46/180/70 130/53/53 159/181/78
f 137/178/148 136/182/82 142/183/150 143/184/151
f 133/177/147 135/176/146 141/185/152 139/186/153
f 135/187/146 132/179/149 138/188/154 141/189/152
f 29/190/48 131/54/54 132/179/149 135/187/146
f 16/13/13 2/16/16 133/177/147 134/88/81
f 130/53/53 46/180/70 136/182/82 137/178/148
f 142/191/150 140/192/155 146/193/156 148/194/157
f 138/188/154 143/184/151 149/195/158 144/196/159
f 143/184/151 142/183/150 148/197/157 149/195/158
f 132/179/149 137/178/148 143/184/151 138/188/154
f 136/89/82 134/88/81 140/192/155 142/191/150
f 134/88/81 133/177/147 139/186/153 140/192/155
f 146/198/156 149/195/158 148/197/157
f 144/196/159 149/195/158 146/198/156 145/199/160
f 147/200/161 144/196/159 145/199/160
f 140/192/155 139/186/153 145/201/160 146/193/156
f 141/189/152 138/188/154 144/196/159 147/200/161
f 139/186/153 141/185/152 147/202/161 145/201/160
f 19/203/74 152/40/40 150/51/51 15/50/50
f 46/204/70 159/84/78 154/87/65 48/205/57
f 19/79/74 21/56/56 162/59/59 163/206/162
f 13/38/38 153/37/37 154/87/65 9/86/80
f 5/207/72 158/60/60 155/63/62 4/208/163
f 4/208/163 155/63/62 156/83/77 6/82/76
f 7/42/42 151/41/41 150/51/51 12/159/129
f 1/49/49 151/41/41 157/44/44 24/209/68
f 24/210/68 157/211/44 171/212/164
f 166/213/165 161/214/166 160/215/167 170/216/168
f 159/181/78 130/53/53 10/52/52 11/217/79
f 158/76/60 131/54/54 29/190/48
f 168/218/169 162/219/59 165/69/58 169/68/66
f 164/220/170 171/212/164 170/216/168 160/215/167
f 162/219/59 168/218/169 167/221/171 163/222/162
f 155/223/62 26/224/61 161/214/166 166/213/165
f 153/225/37 152/226/40 167/221/171 168/218/169
f 156/227/77 155/228/62 166/213/165 170/216/168
f 157/229/44 156/227/77 170/216/168 171/212/164
f 152/230/40 19/231/74 167/221/171
f 26/142/61 23/141/128 160/232/167 161/233/166
f 23/141/128 24/72/68 164/234/170 160/232/167
f 154/235/65 153/225/37 168/218/169 169/68/66
f 171/212/164 164/220/170 24/210/68
f 167/221/171 19/231/74 163/222/162
