# Blender v2.78 (sub 0) OBJ File: 'Room.blend'
# www.blender.org
o Cube_Cube.005
v 1.000000 0.000000 -0.300000
v -1.000000 0.000000 -0.300000
v 0.900000 0.100000 0.300000
v -0.900000 0.100000 0.300000
v -1.000000 0.000000 0.300000
v 1.000000 0.000000 0.300000
v -0.900000 0.100000 -0.200000
v 0.900000 0.100000 -0.200000
v -0.900000 0.500000 0.300000
v 0.900000 0.500000 -0.200000
v -1.000000 0.550000 0.300000
v 1.000000 0.550000 0.300000
v -1.000000 0.550000 -0.300000
v 1.000000 0.550000 -0.300000
v 0.900000 0.600000 0.300000
v -0.900000 0.600000 0.300000
v 0.900000 0.500000 0.300000
v -0.900000 0.600000 -0.200000
v -0.900000 0.500000 -0.200000
v 0.900000 0.600000 -0.200000
v 0.900000 1.000000 -0.200000
v -1.000000 1.050000 0.300000
v 1.000000 1.050000 0.300000
v 1.000000 1.050000 -0.300000
v -1.000000 1.050000 -0.300000
v 0.900000 1.100000 0.300000
v -0.900000 1.100000 0.300000
v -0.900000 1.000000 0.300000
v 0.900000 1.000000 0.300000
v -0.900000 1.100000 -0.200000
v -0.900000 1.000000 -0.200000
v 0.900000 1.100000 -0.200000
v 0.900000 1.500000 -0.200000
v 1.000000 2.100000 0.300000
v -1.000000 1.550000 0.300000
v 1.000000 1.550000 0.300000
v 1.000000 1.550000 -0.300000
v -1.000000 1.550000 -0.300000
v 0.900000 1.600000 0.300000
v -0.900000 1.600000 0.300000
v -0.900000 1.500000 0.300000
v 0.900000 1.500000 0.300000
v -0.900000 1.600000 -0.200000
v -0.900000 1.500000 -0.200000
v 0.900000 1.600000 -0.200000
v -1.000000 2.100000 -0.300000
v -0.900000 2.000000 0.300000
v -1.000000 2.100000 0.300000
v -0.900000 2.000000 -0.200000
v 1.000000 2.100000 -0.300000
v 0.900000 2.000000 -0.200000
v 0.900000 2.000000 0.300000
vt 0.9726 0.2607
vt 0.6907 0.4956
vt 0.6907 0.2607
vt 0.9726 0.0022
vt 0.6907 0.0022
vt 0.3147 0.0022
vt 0.0327 0.2607
vt 0.0327 0.0022
vt 0.9256 0.9421
vt 0.9726 0.7306
vt 0.9726 0.9891
vt 0.9726 0.0022
vt 0.0327 0.2607
vt 0.0327 0.0022
vt 0.9256 0.7071
vt 0.9256 0.7541
vt 0.2927 0.0858
vt 0.0577 0.9317
vt 0.0577 0.0858
vt 0.9256 0.0962
vt 0.9726 0.9891
vt 0.9256 0.9421
vt 0.9256 0.0492
vt 0.9726 0.2607
vt 0.9256 0.2372
vt 0.9287 0.5468
vt 0.0827 0.7348
vt 0.0827 0.5468
vt 0.6248 0.5185
vt 0.3898 0.7065
vt 0.3898 0.5185
vt 0.6248 0.5185
vt 0.3898 0.7065
vt 0.3898 0.5185
vt 0.3147 0.2607
vt 0.0327 0.4956
vt 0.9726 0.4956
vt 0.9726 0.2607
vt 0.0327 0.4956
vt 0.2927 0.0858
vt 0.0577 0.9317
vt 0.0577 0.0858
vt 0.9256 0.2842
vt 0.9726 0.9421
vt 0.9256 0.0962
vt 0.9726 0.0962
vt 0.0577 0.9317
vt 0.2927 0.0858
vt 0.2927 0.9317
vt 0.9726 0.4956
vt 0.9256 0.4721
vt 0.9287 0.1665
vt 0.0827 0.3544
vt 0.0827 0.1665
vt 0.6226 0.5185
vt 0.3876 0.7065
vt 0.3876 0.5185
vt 0.6226 0.5185
vt 0.3876 0.7065
vt 0.3876 0.5185
vt 0.9256 0.4721
vt 0.9256 0.5191
vt 0.9726 0.7306
vt 0.6907 0.9891
vt 0.6907 0.7306
vt 0.3147 0.4956
vt 0.0327 0.7306
vt 0.9726 0.2607
vt 0.9726 0.4956
vt 0.0327 0.7306
vt 0.9256 0.2372
vt 0.9256 0.2842
vt 0.2927 0.0858
vt 0.0577 0.9317
vt 0.0577 0.0858
vt 0.9256 0.5191
vt 0.9726 0.9421
vt 0.9256 0.0962
vt 0.9726 0.0962
vt 0.0577 0.9295
vt 0.2927 0.0836
vt 0.2927 0.9295
vt 0.9726 0.7306
vt 0.9256 0.7071
vt 0.9287 0.3566
vt 0.0827 0.5446
vt 0.0827 0.3566
vt 0.6248 0.5185
vt 0.3898 0.7065
vt 0.3898 0.5185
vt 0.6226 0.5185
vt 0.3876 0.7065
vt 0.3876 0.5185
vt 0.3147 0.7306
vt 0.0327 0.9891
vt 0.9256 0.0492
vt 0.9726 0.0022
vt 0.9726 0.7306
vt 0.0327 0.9891
vt 0.2927 0.0836
vt 0.0577 0.9295
vt 0.0577 0.0836
vt 0.9256 0.7541
vt 0.9726 0.9421
vt 0.9256 0.0962
vt 0.9726 0.0962
vt 0.0577 0.9317
vt 0.2927 0.0858
vt 0.2927 0.9317
vt 0.9256 0.9421
vt 0.9287 0.7348
vt 0.0827 0.9227
vt 0.0827 0.7348
vt 0.6226 0.5185
vt 0.3876 0.7065
vt 0.3876 0.5185
vt 0.6248 0.5185
vt 0.3898 0.7065
vt 0.3898 0.5185
vt 0.0577 0.9317
vt 0.2927 0.0858
vt 0.2927 0.9317
vt 0.9256 0.8951
vt 0.9726 0.0022
vt 0.9726 0.9421
vt 0.0327 0.9891
vt 0.3147 0.0492
vt 0.3147 0.9891
vt 0.2927 0.9317
vt 0.9726 0.0492
vt 0.9726 0.0022
vt 0.9287 0.7348
vt 0.6248 0.7065
vt 0.6248 0.7065
vt 0.2927 0.9317
vt 0.9256 0.9421
vt 0.0577 0.0858
vt 0.9287 0.3544
vt 0.6226 0.7065
vt 0.6226 0.7065
vt 0.9726 0.9891
vt 0.2927 0.9317
vt 0.9256 0.9421
vt 0.0577 0.0836
vt 0.9287 0.5446
vt 0.6248 0.7065
vt 0.6226 0.7065
vt 0.3147 0.9891
vt 0.9726 0.9891
vt 0.2927 0.9295
vt 0.9256 0.9421
vt 0.0577 0.0858
vt 0.9726 0.9891
vt 0.9287 0.9227
vt 0.6226 0.7065
vt 0.6248 0.7065
vt 0.0577 0.0858
vt 0.9256 0.0492
vt 0.0327 0.0492
vn -1.0000 0.0000 0.0000
vn 1.0000 0.0000 0.0000
vn 0.0000 0.0000 1.0000
vn 0.0000 0.0000 -1.0000
vn 0.0000 1.0000 0.0000
vn 0.0000 -1.0000 0.0000
g Cube_Cube.005_Mat_Hylly
s off
f 11/1/1 25/2/1 13/3/1
f 5/4/1 13/3/1 2/5/1
f 1/6/2 12/7/2 6/8/2
f 4/9/3 11/10/3 5/11/3
f 2/12/4 14/13/4 1/14/4
f 16/15/3 11/10/3 9/16/3
f 8/17/5 4/18/5 3/19/5
f 4/20/3 6/21/3 3/22/3
f 3/23/3 12/24/3 17/25/3
f 8/26/3 19/27/3 7/28/3
f 7/29/2 9/30/2 4/31/2
f 3/32/1 10/33/1 8/34/1
f 14/35/2 23/36/2 12/7/2
f 16/15/3 22/37/3 11/10/3
f 13/38/4 24/39/4 14/13/4
f 20/40/5 16/41/5 15/42/5
f 12/24/3 15/43/3 17/25/3
f 16/44/3 17/45/3 15/46/3
f 19/47/6 17/48/6 9/49/6
f 15/43/3 23/50/3 29/51/3
f 20/52/3 31/53/3 18/54/3
f 18/55/2 28/56/2 16/57/2
f 15/58/1 21/59/1 20/60/1
f 27/61/3 22/37/3 28/62/3
f 35/63/1 46/64/1 38/65/1
f 22/37/1 38/65/1 25/2/1
f 24/66/2 36/67/2 23/36/2
f 27/61/3 35/68/3 22/37/3
f 25/69/4 37/70/4 24/39/4
f 40/71/3 35/68/3 41/72/3
f 32/73/5 27/74/5 26/75/5
f 23/50/3 26/76/3 29/51/3
f 27/77/3 29/78/3 26/79/3
f 31/80/6 29/81/6 28/82/6
f 26/76/3 36/83/3 42/84/3
f 32/85/3 44/86/3 30/87/3
f 30/88/2 41/89/2 27/90/2
f 26/91/1 33/92/1 32/93/1
f 37/94/2 34/95/2 36/67/2
f 35/68/3 47/96/3 48/97/3
f 38/98/4 50/99/4 37/70/4
f 45/100/5 40/101/5 39/102/5
f 36/83/3 39/103/3 42/84/3
f 40/104/3 42/105/3 39/106/3
f 44/107/6 42/108/6 41/109/6
f 36/83/3 52/110/3 39/103/3
f 45/111/3 49/112/3 43/113/3
f 43/114/2 47/115/2 40/116/2
f 39/117/1 51/118/1 45/119/1
f 49/120/6 52/121/6 47/122/6
f 47/123/3 34/124/3 48/125/3
f 48/126/5 50/127/5 46/128/5
f 11/1/1 22/37/1 25/2/1
f 5/4/1 11/1/1 13/3/1
f 1/6/2 14/35/2 12/7/2
f 4/9/3 9/16/3 11/10/3
f 2/12/4 13/38/4 14/13/4
f 8/17/5 7/129/5 4/18/5
f 4/20/3 5/130/3 6/21/3
f 3/23/3 6/131/3 12/24/3
f 8/26/3 10/132/3 19/27/3
f 7/29/2 19/133/2 9/30/2
f 3/32/1 17/134/1 10/33/1
f 14/35/2 24/66/2 23/36/2
f 16/15/3 28/62/3 22/37/3
f 13/38/4 25/69/4 24/39/4
f 20/40/5 18/135/5 16/41/5
f 16/44/3 9/136/3 17/45/3
f 19/47/6 10/137/6 17/48/6
f 15/43/3 12/24/3 23/50/3
f 20/52/3 21/138/3 31/53/3
f 18/55/2 31/139/2 28/56/2
f 15/58/1 29/140/1 21/59/1
f 35/63/1 48/141/1 46/64/1
f 22/37/1 35/63/1 38/65/1
f 24/66/2 37/94/2 36/67/2
f 27/61/3 41/72/3 35/68/3
f 25/69/4 38/98/4 37/70/4
f 32/73/5 30/142/5 27/74/5
f 27/77/3 28/143/3 29/78/3
f 31/80/6 21/144/6 29/81/6
f 26/76/3 23/50/3 36/83/3
f 32/85/3 33/145/3 44/86/3
f 30/88/2 44/146/2 41/89/2
f 26/91/1 42/147/1 33/92/1
f 37/94/2 50/148/2 34/95/2
f 35/68/3 40/71/3 47/96/3
f 38/98/4 46/149/4 50/99/4
f 45/100/5 43/150/5 40/101/5
f 40/104/3 41/151/3 42/105/3
f 44/107/6 33/152/6 42/108/6
f 36/83/3 34/153/3 52/110/3
f 45/111/3 51/154/3 49/112/3
f 43/114/2 49/155/2 47/115/2
f 39/117/1 52/156/1 51/118/1
f 49/120/6 51/157/6 52/121/6
f 47/123/3 52/158/3 34/124/3
f 48/126/5 34/159/5 50/127/5
