# Blender v2.78 (sub 0) OBJ File: 'Room.blend'
# www.blender.org
o Table_Cylinder
v 0.000000 0.500000 0.000000
v 0.000000 0.400000 0.000000
v -0.800000 0.000000 -0.075000
v -0.600000 0.400000 -0.056250
v -0.746967 0.000000 -0.053033
v -0.560225 0.400000 -0.039775
v -0.725000 0.000000 0.000000
v -0.543750 0.400000 0.000000
v -0.746967 0.000000 0.053033
v -0.560225 0.400000 0.039775
v -0.800000 0.000000 0.075000
v -0.600000 0.400000 0.056250
v -0.853033 0.000000 0.053033
v -0.639775 0.400000 0.039775
v -0.875000 0.000000 -0.000000
v -0.656250 0.400000 0.000000
v -0.853033 0.000000 -0.053033
v -0.639775 0.400000 -0.039775
v 0.335048 0.000000 0.730320
v 0.251286 0.400000 0.547740
v 0.327556 0.000000 0.673409
v 0.245667 0.400000 0.505057
v 0.362500 0.000000 0.627869
v 0.271875 0.400000 0.470901
v 0.419411 0.000000 0.620376
v 0.314559 0.400000 0.465282
v 0.464952 0.000000 0.655320
v 0.348714 0.400000 0.491490
v 0.472444 0.000000 0.712232
v 0.354333 0.400000 0.534174
v 0.437500 0.000000 0.757772
v 0.328125 0.400000 0.568329
v 0.380589 0.000000 0.765265
v 0.285441 0.400000 0.573949
v 0.354333 0.400000 -0.534174
v 0.472444 0.000000 -0.712232
v 0.328125 0.400000 -0.568329
v 0.437500 0.000000 -0.757772
v 0.285441 0.400000 -0.573949
v 0.380589 0.000000 -0.765265
v 0.251286 0.400000 -0.547740
v 0.335048 0.000000 -0.730320
v 0.245667 0.400000 -0.505057
v 0.327556 0.000000 -0.673409
v 0.271875 0.400000 -0.470901
v 0.362500 0.000000 -0.627868
v 0.314559 0.400000 -0.465282
v 0.419411 0.000000 -0.620376
v 0.348714 0.400000 -0.491490
v 0.464952 0.000000 -0.655320
v 0.000000 0.400000 -0.961314
v 0.000000 0.437943 -1.000000
v -0.000000 0.411113 -0.988669
v 0.000000 0.462057 -1.000000
v 0.000000 0.500000 -0.961314
v 0.000000 0.488887 -0.988669
v 0.382683 0.437943 -0.923880
v 0.367879 0.400000 -0.888138
v 0.378347 0.411113 -0.913411
v 0.367879 0.500000 -0.888138
v 0.382683 0.462057 -0.923880
v 0.378347 0.488887 -0.913411
v 0.707107 0.437943 -0.707107
v 0.679752 0.400000 -0.679752
v 0.699095 0.411113 -0.699095
v 0.679752 0.500000 -0.679752
v 0.707107 0.462057 -0.707107
v 0.699095 0.488887 -0.699095
v 0.923880 0.437943 -0.382683
v 0.888138 0.400000 -0.367879
v 0.913411 0.411113 -0.378347
v 0.888138 0.500000 -0.367879
v 0.923880 0.462057 -0.382683
v 0.913411 0.488887 -0.378347
v 1.000000 0.437943 0.000000
v 0.961314 0.400000 0.000000
v 0.988669 0.411113 0.000000
v 0.961314 0.500000 0.000000
v 1.000000 0.462057 0.000000
v 0.988669 0.488887 0.000000
v 0.923880 0.437943 0.382684
v 0.888138 0.400000 0.367879
v 0.913411 0.411113 0.378347
v 0.888138 0.500000 0.367879
v 0.923880 0.462057 0.382684
v 0.913411 0.488887 0.378347
v 0.707107 0.437943 0.707107
v 0.679752 0.400000 0.679752
v 0.699095 0.411113 0.699095
v 0.679752 0.500000 0.679752
v 0.707107 0.462057 0.707107
v 0.699095 0.488887 0.699095
v 0.382683 0.437943 0.923880
v 0.367879 0.400000 0.888138
v 0.378347 0.411113 0.913411
v 0.367879 0.500000 0.888138
v 0.382683 0.462057 0.923880
v 0.378347 0.488887 0.913411
v 0.000000 0.437943 1.000000
v 0.000000 0.400000 0.961314
v 0.000000 0.411113 0.988669
v 0.000000 0.500000 0.961314
v 0.000000 0.462057 1.000000
v 0.000000 0.488887 0.988669
v -0.382683 0.437943 0.923880
v -0.367879 0.400000 0.888138
v -0.378347 0.411113 0.913411
v -0.367879 0.500000 0.888138
v -0.382683 0.462057 0.923880
v -0.378347 0.488887 0.913411
v -0.707107 0.437943 0.707107
v -0.679751 0.400000 0.679752
v -0.699094 0.411113 0.699095
v -0.679751 0.500000 0.679752
v -0.707107 0.462057 0.707107
v -0.699094 0.488887 0.699095
v -0.923880 0.437943 0.382684
v -0.888138 0.400000 0.367879
v -0.913411 0.411113 0.378347
v -0.888138 0.500000 0.367879
v -0.923880 0.462057 0.382684
v -0.913411 0.488887 0.378347
v -1.000000 0.437943 -0.000000
v -0.961314 0.400000 -0.000000
v -0.988669 0.411113 -0.000000
v -0.961314 0.500000 -0.000000
v -1.000000 0.462057 -0.000000
v -0.988669 0.488887 -0.000000
v -0.923879 0.437943 -0.382684
v -0.888138 0.400000 -0.367879
v -0.913411 0.411113 -0.378347
v -0.888138 0.500000 -0.367879
v -0.923879 0.462057 -0.382684
v -0.913411 0.488887 -0.378347
v -0.707107 0.437943 -0.707107
v -0.679751 0.400000 -0.679752
v -0.699094 0.411113 -0.699095
v -0.679751 0.500000 -0.679752
v -0.707107 0.462057 -0.707107
v -0.699094 0.488887 -0.699095
v -0.382683 0.437943 -0.923880
v -0.367878 0.400000 -0.888138
v -0.378347 0.411113 -0.913411
v -0.367878 0.500000 -0.888138
v -0.382683 0.462057 -0.923880
v -0.378347 0.488887 -0.913411
vt 0.7660 0.0847
vt 0.5764 0.0259
vt 0.5156 0.5443
vt 0.3777 0.0460
vt 0.1999 0.1420
vt 0.0702 0.2993
vt 0.0083 0.4938
vt 0.0236 0.6960
vt 0.1139 0.8752
vt 0.2653 1.0040
vt 0.4548 1.0628
vt 0.6536 1.0426
vt 0.8314 0.9466
vt 0.9611 0.7894
vt 1.0230 0.5948
vt 1.0077 0.3926
vt 0.9174 0.2135
vt 0.7945 0.0977
vt 0.9459 0.2265
vt 0.5441 0.5574
vt 0.4061 0.0591
vt 0.6049 0.0389
vt 0.1424 0.8882
vt 0.0521 0.7091
vt 0.9896 0.8024
vt 0.8599 0.9597
vt 0.0368 0.5068
vt 0.0987 0.3123
vt 0.6821 1.0556
vt 0.4833 1.0758
vt 1.0362 0.4056
vt 0.2284 0.1551
vt 0.2938 1.0170
vt 1.0515 0.6079
vt 0.9334 0.2003
vt 0.7759 0.0664
vt 0.8044 0.0794
vt 0.9619 0.2133
vt 0.5789 0.0053
vt 0.6074 0.0183
vt 0.3722 0.0262
vt 0.4007 0.0392
vt 0.1873 0.1260
vt 0.2158 0.1390
vt 0.0524 0.2895
vt 0.0809 0.3025
vt -0.0119 0.4918
vt 0.0166 0.5048
vt 0.0041 0.7021
vt 0.0325 0.7151
vt 0.0979 0.8884
vt 0.1264 0.9014
vt 0.2553 1.0222
vt 0.2838 1.0353
vt 0.4524 1.0834
vt 0.4809 1.0964
vt 0.6591 1.0625
vt 0.6876 1.0755
vt 0.8440 0.9626
vt 0.8725 0.9757
vt 0.9789 0.7991
vt 1.0073 0.8122
vt 1.0432 0.5969
vt 1.0717 0.6099
vt 1.0272 0.3866
vt 1.0557 0.3996
vt 1.0383 0.3914
vt 1.0451 0.3946
vt 0.9513 0.2082
vt 0.9444 0.2051
vt 0.3829 0.0309
vt 0.3898 0.0341
vt 0.2048 0.1339
vt 0.1980 0.1308
vt 0.1085 0.8934
vt 0.1154 0.8966
vt 0.2729 1.0305
vt 0.2660 1.0274
vt 0.7869 0.0711
vt 0.7937 0.0743
vt 0.5966 0.0131
vt 0.5897 0.0100
vt 0.9899 0.8042
vt 0.9967 0.8073
vt 1.0611 0.6050
vt 1.0542 0.6018
vt -0.0013 0.4967
vt 0.0055 0.4999
vt 0.0215 0.7102
vt 0.0146 0.7071
vt 0.6700 1.0676
vt 0.6769 1.0708
vt 0.8618 0.9709
vt 0.8549 0.9678
vt 0.0699 0.2975
vt 0.0630 0.2943
vt 0.4701 1.0917
vt 0.4632 1.0886
vt 0.1975 -0.1483
vt 0.2761 1.1553
vt 0.1660 1.2159
vt 0.0508 -0.0675
vt 0.0453 1.2507
vt -0.1101 -0.0212
vt 1.1334 -0.0212
vt 0.9779 1.2507
vt 0.8572 1.2159
vt 0.9724 -0.0675
vt 0.7472 1.1553
vt 0.8257 -0.1483
vt 0.6351 1.0987
vt 0.6763 -0.2239
vt 0.5116 1.0756
vt 0.5116 -0.2546
vt 0.3881 1.0987
vt 0.3470 -0.2239
vt 0.5116 -0.2546
vt 0.5116 1.0756
vt 0.3881 1.0987
vt 0.3470 -0.2239
vt 0.0508 -0.0675
vt 0.1660 1.2159
vt 0.0453 1.2507
vt -0.1101 -0.0212
vt 1.1334 -0.0212
vt 0.9779 1.2507
vt 0.8572 1.2159
vt 0.9724 -0.0675
vt 0.7472 1.1553
vt 0.8257 -0.1483
vt 0.6351 1.0987
vt 0.6763 -0.2239
vt 0.2761 1.1553
vt 0.1975 -0.1483
vt 0.3470 -0.2239
vt 0.3881 1.0987
vt 0.2761 1.1553
vt 0.1975 -0.1483
vt 0.6763 -0.2239
vt 0.6351 1.0987
vt 0.5116 1.0756
vt 0.5116 -0.2546
vt 0.8257 -0.1483
vt 0.7472 1.1553
vt 0.9724 -0.0675
vt 0.8572 1.2159
vt 1.1334 -0.0212
vt 0.9780 1.2507
vt 0.0508 -0.0675
vt 0.1660 1.2159
vt 0.0453 1.2507
vt -0.1101 -0.0212
vn 0.0000 -1.0000 -0.0000
vn 0.0000 1.0000 0.0000
vn 0.0747 -0.9239 -0.3753
vn 0.0747 0.9239 -0.3753
vn 0.2126 -0.9239 -0.3182
vn 0.2126 0.9239 -0.3182
vn 0.3182 -0.9239 -0.2126
vn 0.3182 0.9239 -0.2126
vn 0.3753 -0.9239 -0.0747
vn 0.3753 0.9239 -0.0747
vn 0.3753 -0.9239 0.0747
vn 0.3753 0.9239 0.0747
vn 0.3182 -0.9239 0.2126
vn 0.3182 0.9239 0.2126
vn 0.2126 -0.9239 0.3182
vn 0.2126 0.9239 0.3182
vn 0.0747 -0.9239 0.3753
vn 0.0747 0.9239 0.3753
vn -0.0747 -0.9239 0.3753
vn -0.0747 0.9239 0.3753
vn -0.2126 -0.9239 0.3182
vn -0.2126 0.9239 0.3182
vn -0.3182 -0.9239 0.2126
vn -0.3182 0.9239 0.2126
vn -0.3753 -0.9239 0.0747
vn -0.3753 0.9239 0.0747
vn -0.3753 -0.9239 -0.0747
vn -0.3753 0.9239 -0.0747
vn -0.3182 -0.9239 -0.2126
vn -0.3182 0.9239 -0.2126
vn -0.2126 -0.9239 -0.3182
vn -0.2126 0.9239 -0.3182
vn -0.0747 -0.9239 -0.3753
vn -0.0747 0.9239 -0.3753
vn -0.3754 -0.1938 -0.9063
vn -0.3754 0.1938 -0.9063
vn 0.0000 0.1938 -0.9810
vn 0.0000 -0.1938 -0.9810
vn 0.9063 -0.1938 -0.3754
vn 0.9063 0.1938 -0.3754
vn 0.9810 0.1938 0.0000
vn 0.9810 -0.1938 0.0000
vn 0.0000 -0.1938 0.9810
vn 0.0000 0.1938 0.9810
vn -0.3754 0.1938 0.9063
vn -0.3754 -0.1938 0.9063
vn 0.3754 -0.1938 -0.9063
vn 0.3754 0.1938 -0.9063
vn 0.6937 0.1938 -0.6937
vn 0.6937 -0.1938 -0.6937
vn -0.9063 -0.1938 -0.3754
vn -0.9063 0.1938 -0.3754
vn -0.6937 0.1938 -0.6937
vn -0.6937 -0.1938 -0.6937
vn 0.6937 -0.1938 0.6937
vn 0.6937 0.1938 0.6937
vn 0.3754 0.1938 0.9063
vn 0.3754 -0.1938 0.9063
vn -0.9063 -0.1938 0.3754
vn -0.9063 0.1938 0.3754
vn -0.9810 0.1938 0.0000
vn -0.9810 -0.1938 0.0000
vn 0.9063 0.1938 0.3754
vn 0.9063 -0.1938 0.3754
vn -0.6937 0.1938 0.6937
vn -0.6937 -0.1938 0.6937
vn 0.2774 -0.6889 -0.6697
vn 0.0000 -0.6889 -0.7249
vn 0.0000 0.6889 -0.7249
vn 0.2774 0.6889 -0.6697
vn 0.5126 -0.6889 -0.5126
vn 0.5126 0.6889 -0.5126
vn 0.6697 -0.6889 -0.2774
vn 0.6697 0.6889 -0.2774
vn 0.7249 -0.6889 0.0000
vn 0.7249 0.6889 0.0000
vn 0.6697 -0.6889 0.2774
vn 0.6697 0.6889 0.2774
vn 0.5126 -0.6889 0.5126
vn 0.5126 0.6889 0.5126
vn 0.2774 -0.6889 0.6697
vn 0.2774 0.6889 0.6697
vn 0.0000 -0.6889 0.7249
vn 0.0000 0.6889 0.7249
vn -0.2774 -0.6889 0.6697
vn -0.2774 0.6889 0.6697
vn -0.5126 -0.6889 0.5126
vn -0.5126 0.6889 0.5126
vn -0.6697 -0.6889 0.2774
vn -0.6697 0.6889 0.2774
vn -0.7249 -0.6889 0.0000
vn -0.7249 0.6889 0.0000
vn -0.6697 -0.6889 -0.2774
vn -0.6697 0.6889 -0.2774
vn -0.5126 -0.6889 -0.5126
vn -0.5126 0.6889 -0.5126
vn -0.2774 -0.6889 -0.6697
vn -0.2774 0.6889 -0.6697
vn -0.1092 0.1010 -0.9889
vn 0.1133 -0.0101 -0.9935
vn 0.7176 -0.3144 -0.6214
vn 0.6193 -0.2646 -0.7392
vn 0.9108 -0.4127 0.0000
vn 0.7176 -0.3144 0.6214
vn 0.6193 -0.2646 0.7392
vn 0.1133 -0.0101 0.9935
vn -0.1092 0.1010 0.9889
vn -0.6024 0.3450 0.7197
vn -0.6939 0.3900 0.6053
vn -0.8773 0.4798 0.0000
vn -0.6024 0.3450 -0.7197
vn -0.6939 0.3900 -0.6053
vn 0.4387 0.4798 0.7598
vn -0.3221 0.3450 0.8816
vn -0.1772 0.3900 0.9036
vn -0.9498 -0.2646 -0.1666
vn -0.8969 -0.3144 -0.3108
vn -0.4554 -0.4127 -0.7888
vn 0.1793 -0.3144 -0.9322
vn 0.3306 -0.2646 -0.9059
vn 0.8037 -0.0101 -0.5949
vn 0.9110 0.1010 -0.3999
vn 0.9245 0.3450 0.1618
vn 0.8711 0.3900 0.2983
vn -0.9171 -0.0101 0.3986
vn -0.8018 0.1010 0.5890
vn 0.8711 0.3900 -0.2983
vn 0.9245 0.3450 -0.1618
vn 0.8037 -0.0101 0.5949
vn 0.9110 0.1010 0.3999
vn -0.1772 0.3900 -0.9036
vn -0.3221 0.3450 -0.8816
vn 0.4387 0.4798 -0.7598
vn -0.8018 0.1010 -0.5890
vn -0.9171 -0.0101 -0.3986
vn -0.9498 -0.2646 0.1666
vn -0.8969 -0.3144 0.3108
vn -0.4554 -0.4127 0.7888
vn 0.3306 -0.2646 0.9059
vn 0.1793 -0.3144 0.9322
s off
f 58/1/1 64/2/1 2/3/1
f 64/2/1 70/4/1 2/3/1
f 70/4/1 76/5/1 2/3/1
f 76/5/1 82/6/1 2/3/1
f 82/6/1 88/7/1 2/3/1
f 88/7/1 94/8/1 2/3/1
f 94/8/1 100/9/1 2/3/1
f 100/9/1 106/10/1 2/3/1
f 106/10/1 112/11/1 2/3/1
f 112/11/1 118/12/1 2/3/1
f 118/12/1 124/13/1 2/3/1
f 124/13/1 130/14/1 2/3/1
f 130/14/1 136/15/1 2/3/1
f 136/15/1 142/16/1 2/3/1
f 142/16/1 51/17/1 2/3/1
f 60/18/2 55/19/2 1/20/2
f 72/21/2 66/22/2 1/20/2
f 102/23/2 96/24/2 1/20/2
f 132/25/2 126/26/2 1/20/2
f 90/27/2 84/28/2 1/20/2
f 120/29/2 114/30/2 1/20/2
f 55/19/2 144/31/2 1/20/2
f 78/32/2 72/21/2 1/20/2
f 108/33/2 102/23/2 1/20/2
f 138/34/2 132/25/2 1/20/2
f 66/22/2 60/18/2 1/20/2
f 96/24/2 90/27/2 1/20/2
f 126/26/2 120/29/2 1/20/2
f 84/28/2 78/32/2 1/20/2
f 114/30/2 108/33/2 1/20/2
f 144/31/2 138/34/2 1/20/2
f 53/35/3 59/36/3 58/1/3 51/17/3
f 62/37/4 56/38/4 55/19/4 60/18/4
f 59/36/5 65/39/5 64/2/5 58/1/5
f 68/40/6 62/37/6 60/18/6 66/22/6
f 65/39/7 71/41/7 70/4/7 64/2/7
f 74/42/8 68/40/8 66/22/8 72/21/8
f 71/41/9 77/43/9 76/5/9 70/4/9
f 80/44/10 74/42/10 72/21/10 78/32/10
f 77/43/11 83/45/11 82/6/11 76/5/11
f 86/46/12 80/44/12 78/32/12 84/28/12
f 83/45/13 89/47/13 88/7/13 82/6/13
f 92/48/14 86/46/14 84/28/14 90/27/14
f 89/47/15 95/49/15 94/8/15 88/7/15
f 98/50/16 92/48/16 90/27/16 96/24/16
f 95/49/17 101/51/17 100/9/17 94/8/17
f 104/52/18 98/50/18 96/24/18 102/23/18
f 101/51/19 107/53/19 106/10/19 100/9/19
f 110/54/20 104/52/20 102/23/20 108/33/20
f 107/53/21 113/55/21 112/11/21 106/10/21
f 116/56/22 110/54/22 108/33/22 114/30/22
f 113/55/23 119/57/23 118/12/23 112/11/23
f 122/58/24 116/56/24 114/30/24 120/29/24
f 119/57/25 125/59/25 124/13/25 118/12/25
f 128/60/26 122/58/26 120/29/26 126/26/26
f 125/59/27 131/61/27 130/14/27 124/13/27
f 134/62/28 128/60/28 126/26/28 132/25/28
f 131/61/29 137/63/29 136/15/29 130/14/29
f 140/64/30 134/62/30 132/25/30 138/34/30
f 137/63/31 143/65/31 142/16/31 136/15/31
f 146/66/32 140/64/32 138/34/32 144/31/32
f 143/65/33 53/35/33 51/17/33 142/16/33
f 56/38/34 146/66/34 144/31/34 55/19/34
f 51/17/1 58/1/1 2/3/1
s 1
f 141/67/35 145/68/36 54/69/37 52/70/38
f 69/71/39 73/72/40 79/73/41 75/74/42
f 99/75/43 103/76/44 109/77/45 105/78/46
f 57/79/47 61/80/48 67/81/49 63/82/50
f 129/83/51 133/84/52 139/85/53 135/86/54
f 87/87/55 91/88/56 97/89/57 93/90/58
f 117/91/59 121/92/60 127/93/61 123/94/62
f 75/74/42 79/73/41 85/95/63 81/96/64
f 105/78/46 109/77/45 115/97/65 111/98/66
f 135/86/54 139/85/53 145/68/36 141/67/35
f 63/82/50 67/81/49 73/72/40 69/71/39
f 93/90/58 97/89/57 103/76/44 99/75/43
f 123/94/62 127/93/61 133/84/52 129/83/51
f 81/96/64 85/95/63 91/88/56 87/87/55
f 111/98/66 115/97/65 121/92/60 117/91/59
f 52/70/38 54/69/37 61/80/48 57/79/47
f 52/70/38 57/79/47 59/36/67 53/35/68
f 61/80/48 54/69/37 56/38/69 62/37/70
f 57/79/47 63/82/50 65/39/71 59/36/67
f 67/81/49 61/80/48 62/37/70 68/40/72
f 63/82/50 69/71/39 71/41/73 65/39/71
f 73/72/40 67/81/49 68/40/72 74/42/74
f 69/71/39 75/74/42 77/43/75 71/41/73
f 79/73/41 73/72/40 74/42/74 80/44/76
f 75/74/42 81/96/64 83/45/77 77/43/75
f 85/95/63 79/73/41 80/44/76 86/46/78
f 81/96/64 87/87/55 89/47/79 83/45/77
f 91/88/56 85/95/63 86/46/78 92/48/80
f 87/87/55 93/90/58 95/49/81 89/47/79
f 97/89/57 91/88/56 92/48/80 98/50/82
f 93/90/58 99/75/43 101/51/83 95/49/81
f 103/76/44 97/89/57 98/50/82 104/52/84
f 99/75/43 105/78/46 107/53/85 101/51/83
f 109/77/45 103/76/44 104/52/84 110/54/86
f 105/78/46 111/98/66 113/55/87 107/53/85
f 115/97/65 109/77/45 110/54/86 116/56/88
f 111/98/66 117/91/59 119/57/89 113/55/87
f 121/92/60 115/97/65 116/56/88 122/58/90
f 117/91/59 123/94/62 125/59/91 119/57/89
f 127/93/61 121/92/60 122/58/90 128/60/92
f 123/94/62 129/83/51 131/61/93 125/59/91
f 133/84/52 127/93/61 128/60/92 134/62/94
f 129/83/51 135/86/54 137/63/95 131/61/93
f 139/85/53 133/84/52 134/62/94 140/64/96
f 135/86/54 141/67/35 143/65/97 137/63/95
f 145/68/36 139/85/53 140/64/96 146/66/98
f 141/67/35 52/70/38 53/35/68 143/65/97
f 54/69/37 145/68/36 146/66/98 56/38/69
s 33
f 3/99/99 4/100/100 6/101/101 5/102/102
f 5/102/102 6/101/101 8/103/103 7/104/103
f 7/105/103 8/106/103 10/107/104 9/108/105
f 9/108/105 10/107/104 12/109/106 11/110/107
f 11/110/107 12/109/106 14/111/108 13/112/109
f 13/112/109 14/111/108 16/113/110 15/114/110
f 15/114/110 16/113/110 18/115/111 17/116/112
f 17/116/112 18/115/111 4/100/100 3/99/99
s 34
f 31/117/113 32/118/113 34/119/114 33/120/115
f 21/121/116 22/122/117 24/123/118 23/124/118
f 23/125/118 24/126/118 26/127/119 25/128/120
f 25/128/120 26/127/119 28/129/121 27/130/122
f 27/130/122 28/129/121 30/131/123 29/132/124
f 29/132/124 30/131/123 32/118/113 31/117/113
f 33/120/115 34/119/114 20/133/125 19/134/126
f 19/134/126 20/133/125 22/122/117 21/121/116
s 35
f 36/135/127 35/136/128 49/137/129 50/138/130
f 40/139/131 39/140/132 37/141/133 38/142/133
f 42/143/134 41/144/135 39/140/132 40/139/131
f 44/145/136 43/146/137 41/144/135 42/143/134
f 46/147/138 45/148/138 43/146/137 44/145/136
f 48/149/139 47/150/140 45/151/138 46/152/138
f 50/138/130 49/137/129 47/150/140 48/149/139
f 38/142/133 37/141/133 35/136/128 36/135/127
