# Blender v2.78 (sub 0) OBJ File: 'Room.blend'
# www.blender.org
o Cylinder_Cylinder.002
v 0.000000 -0.563428 -0.033343
v -0.000000 1.436573 -0.033343
v -0.000000 1.180223 -0.056150
v 0.006119 1.180223 -0.053616
v 0.008653 1.180223 -0.047497
v 0.006119 1.180223 -0.041378
v -0.000000 1.180223 -0.038844
v -0.006119 1.180223 -0.041378
v -0.008653 1.180223 -0.047497
v -0.006119 1.180223 -0.053616
v 0.000000 -0.563428 -0.045332
v -0.000000 -0.551408 -0.058230
v 0.000000 -0.559907 -0.054499
v 0.017598 -0.551408 -0.050941
v 0.008478 -0.563428 -0.041821
v 0.014960 -0.559907 -0.048302
v 0.024887 -0.551408 -0.033343
v 0.011990 -0.563428 -0.033343
v 0.021156 -0.559907 -0.033343
v 0.017598 -0.551408 -0.015745
v 0.008478 -0.563428 -0.024865
v 0.014960 -0.559907 -0.018383
v -0.000000 -0.551408 -0.008455
v -0.000000 -0.563428 -0.021353
v -0.000000 -0.559907 -0.012186
v -0.017598 -0.551408 -0.015745
v -0.008478 -0.563428 -0.024865
v -0.014960 -0.559907 -0.018383
v -0.024887 -0.551408 -0.033343
v -0.011990 -0.563428 -0.033343
v -0.021156 -0.559907 -0.033343
v -0.017598 -0.551408 -0.050941
v -0.008478 -0.563428 -0.041821
v -0.014960 -0.559907 -0.048302
v 0.017831 0.201256 -0.068275
v 0.020081 -0.038709 -0.061651
v 0.011900 0.833887 -0.064135
v 0.014549 0.551384 -0.069931
v -0.008415 0.833887 -0.072550
v -0.010287 0.551384 -0.080218
v -0.012608 0.201256 -0.080884
v -0.014199 -0.038709 -0.075850
v 0.014199 -0.038709 -0.075850
v 0.012608 0.201256 -0.080884
v 0.010287 0.551384 -0.080218
v 0.008415 0.833887 -0.072550
v -0.000000 0.833887 -0.076035
v -0.000000 0.551384 -0.084480
v -0.000000 0.201256 -0.086106
v -0.000000 -0.038709 -0.081732
v 0.010287 0.551384 -0.059644
v 0.008415 0.833887 -0.055720
v 0.014199 -0.038709 -0.047452
v 0.012608 0.201256 -0.055667
v -0.000000 0.551384 -0.055382
v -0.000000 0.833887 -0.052235
v -0.000000 -0.038709 -0.041570
v -0.000000 0.201256 -0.050444
v -0.008415 0.833887 -0.055720
v -0.010287 0.551384 -0.059644
v -0.012608 0.201256 -0.055667
v -0.014199 -0.038709 -0.047452
v -0.014549 0.551384 -0.069931
v -0.011900 0.833887 -0.064135
v -0.020081 -0.038709 -0.061651
v -0.017831 0.201256 -0.068275
v 0.000000 -0.165611 0.026657
v 0.000000 0.038143 0.026657
v 0.000000 -0.139856 -0.012044
v 0.000000 -0.104478 -0.024084
v 0.000000 -0.000329 -0.033011
v 0.000000 0.028727 -0.016265
v 0.035880 -0.104478 -0.009222
v 0.027366 -0.139856 -0.000709
v 0.030351 0.028727 -0.003693
v 0.042192 -0.000329 -0.015535
v 0.050741 -0.104478 0.026657
v 0.038702 -0.139856 0.026657
v 0.042922 0.028727 0.026657
v 0.059669 -0.000329 0.026657
v 0.035880 -0.104478 0.062537
v 0.027366 -0.139856 0.054024
v 0.030351 0.028727 0.057008
v 0.042192 -0.000329 0.068850
v -0.000000 -0.104478 0.077399
v -0.000000 -0.139856 0.065359
v -0.000000 0.028727 0.069580
v -0.000000 -0.000329 0.086326
v -0.035880 -0.104478 0.062537
v -0.027366 -0.139856 0.054024
v -0.030351 0.028727 0.057008
v -0.042192 -0.000329 0.068850
v -0.050741 -0.104478 0.026657
v -0.038702 -0.139856 0.026657
v -0.042922 0.028727 0.026657
v -0.059669 -0.000329 0.026657
v -0.035880 -0.104478 -0.009222
v -0.027366 -0.139856 -0.000709
v -0.030351 0.028727 -0.003693
v -0.042192 -0.000329 -0.015535
v 0.000000 -0.030869 -0.032474
v 0.000000 -0.068321 -0.029401
v 0.039639 -0.068321 -0.012982
v 0.041812 -0.030869 -0.015155
v 0.056059 -0.068321 0.026657
v 0.059131 -0.030869 0.026657
v 0.039639 -0.068321 0.066297
v 0.041812 -0.030869 0.068469
v -0.000000 -0.068321 0.082716
v -0.000000 -0.030869 0.085789
v -0.039639 -0.068321 0.066297
v -0.041812 -0.030869 0.068469
v -0.056059 -0.068321 0.026657
v -0.059131 -0.030869 0.026657
v -0.039639 -0.068321 -0.012982
v -0.041812 -0.030869 -0.015155
v -0.116667 -0.122252 0.032410
v -0.116667 -0.119336 0.036657
v -0.120000 -0.118974 0.031890
v -0.116667 -0.098066 0.036657
v -0.116667 -0.094623 0.032364
v -0.120000 -0.097881 0.031890
v -0.116667 -0.122252 0.020904
v -0.120000 -0.118974 0.021424
v -0.116667 -0.119183 0.016657
v -0.116667 -0.094623 0.020951
v -0.116667 -0.098066 0.016657
v -0.120000 -0.097881 0.021424
v -0.090000 -0.122252 0.032410
v -0.091103 -0.119336 0.036657
v -0.090000 -0.094623 0.031519
v -0.090000 -0.098066 0.036657
v -0.090000 -0.122252 0.020904
v -0.091103 -0.119183 0.016657
v -0.090000 -0.094623 0.021796
v -0.090000 -0.098066 0.016657
v -0.079359 -0.104674 0.023748
v -0.076795 -0.109658 0.021194
v -0.072585 -0.110843 0.021730
v -0.071292 -0.112135 0.023090
v -0.076795 -0.109658 0.032120
v -0.079359 -0.104674 0.029567
v -0.071237 -0.112191 0.030224
v -0.072474 -0.110954 0.031584
v -0.071292 -0.032135 0.022983
v -0.072585 -0.030843 0.021657
v -0.072474 -0.030954 0.031657
v -0.071237 -0.032191 0.030332
v -0.079352 -0.024075 0.023840
v -0.076762 -0.026666 0.021657
v -0.079352 -0.024075 0.029474
v -0.076762 -0.026666 0.031657
v -0.050000 -0.031618 0.022453
v -0.050000 -0.030843 0.021657
v -0.050000 -0.030954 0.031657
v -0.050000 -0.031696 0.030862
v -0.050000 -0.026666 0.021657
v -0.050000 -0.024075 0.023840
v -0.050000 -0.024075 0.029474
v -0.050000 -0.026666 0.031657
v -0.100000 -0.122252 0.021464
v -0.100000 -0.119183 0.017629
v -0.110000 -0.119183 0.017629
v -0.110000 -0.122252 0.021464
v -0.110000 -0.094623 0.021506
v -0.110000 -0.098066 0.017629
v -0.100000 -0.098066 0.017629
v -0.100000 -0.094623 0.021599
v -0.110000 -0.122252 0.031851
v -0.110000 -0.119336 0.035685
v -0.100000 -0.119336 0.035685
v -0.100000 -0.122252 0.031851
v -0.100000 -0.094623 0.031716
v -0.100000 -0.098066 0.035685
v -0.110000 -0.098066 0.035685
v -0.110000 -0.094623 0.031809
v -0.116667 -0.123428 0.026657
v -0.120000 -0.118974 0.026657
v -0.116667 -0.093428 0.026657
v -0.120000 -0.097881 0.026657
v -0.110000 -0.123428 0.026657
v -0.110000 -0.093428 0.026657
v -0.090000 -0.123428 0.026657
v -0.070000 -0.113428 0.026657
v -0.100000 -0.123428 0.026657
v -0.090000 -0.093428 0.026657
v -0.100000 -0.093428 0.026657
v -0.080000 -0.103428 0.026657
v -0.080000 -0.023428 0.026657
v -0.070000 -0.033428 0.026657
v -0.050000 -0.033428 0.026657
v -0.050000 -0.023428 0.026657
vt 0.3490 0.7979
vt 0.6474 0.7908
vt 0.6477 0.7965
vt 0.3493 0.8057
vt 0.8685 0.7783
vt 0.6467 0.7794
vt 0.6466 0.7737
vt 0.3187 0.9271
vt 0.0172 0.9256
vt 0.0172 0.9160
vt 0.3186 0.9153
vt 0.3485 0.7587
vt 0.6470 0.7623
vt 0.6467 0.7680
vt 0.3482 0.7665
vt 0.6471 0.7851
vt 0.9792 0.8984
vt 0.9687 0.8982
vt 0.9714 0.8907
vt 0.3186 0.8800
vt 0.0167 0.8871
vt 0.0164 0.8776
vt 0.3183 0.8682
vt 0.8681 0.7866
vt 0.9801 0.8662
vt 0.9722 0.8739
vt 0.9695 0.8662
vt 0.9572 0.9775
vt 0.5256 0.9677
vt 0.5257 0.9543
vt 0.9546 0.9618
vt 0.9721 0.8586
vt 0.5254 0.9412
vt 0.9566 0.9457
vt 0.8680 0.7598
vt 0.6473 0.7566
vt 0.6476 0.7509
vt 0.9801 0.9609
vt 0.9725 0.9689
vt 0.9696 0.9613
vt 0.3187 0.9388
vt 0.0170 0.9352
vt 0.9719 0.9536
vt 0.9566 0.8820
vt 0.5253 0.8884
vt 0.5255 0.8754
vt 0.9545 0.8662
vt 0.8685 0.7680
vt 0.9792 0.9289
vt 0.9717 0.9369
vt 0.9687 0.9293
vt 0.9712 0.9060
vt 0.3486 0.7900
vt 0.9557 0.9139
vt 0.9536 0.8980
vt 0.9609 0.8980
vt 0.9637 0.9113
vt 0.9646 0.8852
vt 0.9618 0.8661
vt 0.9647 0.8793
vt 0.9571 0.8502
vt 0.9652 0.8532
vt 0.9618 0.9615
vt 0.9652 0.9746
vt 0.9647 0.9485
vt 0.9536 0.9300
vt 0.9609 0.9296
vt 0.9645 0.9427
vt 0.9638 0.9166
vt 0.9709 0.9217
vt 0.3186 0.8917
vt 0.0170 0.8967
vt 0.5250 0.9279
vt 0.5248 0.9148
vt 0.3481 0.7743
vt 0.3489 0.7508
vt 0.3187 0.9506
vt 0.0168 0.9448
vt 0.3492 0.7430
vt 0.3185 0.9623
vt 0.0166 0.9544
vt 0.5254 0.8619
vt 0.3482 0.7822
vt 0.5249 0.9018
vt 0.0171 0.9063
vt 0.3186 0.9035
vt 0.1049 0.7653
vt 0.1050 0.7557
vt 0.1053 0.7461
vt 0.1055 0.7365
vt 0.1051 0.7941
vt 0.1049 0.7845
vt 0.1057 0.8133
vt 0.1054 0.8037
vt 0.1048 0.7749
vt 0.1543 0.2096
vt 0.1487 0.3016
vt 0.0418 0.2950
vt 0.0542 0.2009
vt 0.7823 0.3247
vt 0.7975 0.4002
vt 0.6846 0.4211
vt 0.6741 0.3468
vt 0.1483 0.3926
vt 0.1516 0.4683
vt 0.0353 0.4691
vt 0.0353 0.3913
vt 0.4257 0.5412
vt 0.5151 0.4864
vt 0.5351 0.5528
vt 0.5707 0.4310
vt 0.5712 0.3591
vt 0.5410 0.1953
vt 0.5627 0.2777
vt 0.4785 0.2920
vt 0.4663 0.2291
vt 0.4677 0.4541
vt 0.4790 0.4048
vt 0.4839 0.3567
vt 0.4066 0.2996
vt 0.4033 0.2411
vt 0.4201 0.4483
vt 0.4145 0.4026
vt 0.4122 0.3583
vt 0.3338 0.3029
vt 0.3385 0.2385
vt 0.3747 0.4614
vt 0.3512 0.4162
vt 0.3406 0.3673
vt 0.2484 0.3026
vt 0.2541 0.2150
vt 0.3329 0.4978
vt 0.2676 0.4576
vt 0.2526 0.3853
vt 0.3191 0.5625
vt 0.3949 0.0886
vt 0.4963 0.0270
vt 0.5022 0.0939
vt 0.6357 0.1738
vt 0.6573 0.2594
vt 0.3516 0.6348
vt 0.7289 0.1474
vt 0.7586 0.2335
vt 0.3099 0.1500
vt 0.2847 0.0960
vt 0.3528 0.1782
vt 0.3976 0.1847
vt 0.4406 0.1742
vt 0.4797 0.1450
vt 0.5080 0.6305
vt 0.5835 0.0184
vt 0.5811 0.1095
vt 0.6204 0.5444
vt 0.5933 0.6712
vt 0.1967 0.1257
vt 0.2419 0.5705
vt 0.1866 0.0162
vt 0.2899 0.0246
vt 0.2800 0.6773
vt 0.7373 0.0576
vt 0.7368 0.0992
vt 0.7237 0.0960
vt 0.7254 0.0607
vt 0.8085 0.1042
vt 0.8120 0.0942
vt 0.9047 0.2889
vt 0.8985 0.2937
vt 0.8155 0.0776
vt 0.7761 0.0600
vt 0.7770 0.0987
vt 0.7342 0.1230
vt 0.7176 0.1213
vt 0.7193 0.1069
vt 0.7352 0.1105
vt 0.8155 0.0776
vt 0.7761 0.0600
vt 0.8250 0.0716
vt 0.7254 0.0607
vt 0.7237 0.0960
vt 0.7368 0.0992
vt 0.7373 0.0576
vt 0.7583 0.0574
vt 0.7573 0.1003
vt 0.7806 0.1205
vt 0.7579 0.1233
vt 0.7574 0.1114
vt 0.7781 0.1100
vt 0.7770 0.0987
vt 0.7573 0.1003
vt 0.7583 0.0574
vt 0.8356 0.0599
vt 0.8280 0.0671
vt 0.9187 0.2626
vt 0.9248 0.2520
vt 0.9157 0.2679
vt 0.9090 0.2805
vt 0.9751 0.2586
vt 0.9740 0.2474
vt 0.8250 0.0716
vt 0.9090 0.2805
vt 0.9157 0.2679
vt 0.9030 0.2974
vt 0.9777 0.2799
vt 0.9787 0.2872
vt 0.9753 0.2612
vt 0.9765 0.2714
vt 0.9765 0.2714
vt 0.9753 0.2612
vt 0.7033 0.0563
vt 0.7030 0.1006
vt 0.7135 0.0977
vt 0.7146 0.0597
vt 0.7589 0.0342
vt 0.7830 0.0359
vt 0.7801 0.0495
vt 0.7586 0.0466
vt 0.7801 0.0495
vt 0.8332 0.0588
vt 0.7354 0.0350
vt 0.7362 0.0473
vt 0.7209 0.0504
vt 0.7146 0.0597
vt 0.7135 0.0977
vt 0.7209 0.0504
vt 0.7193 0.1069
vt 0.7081 0.0432
vt 0.7070 0.1132
vt 0.7362 0.0473
vt 0.7574 0.1114
vt 0.7781 0.1100
vt 0.8120 0.0942
vt 0.9187 0.2626
vt 0.9751 0.2586
vt 0.8280 0.0671
vt 0.9047 0.2889
vt 0.9777 0.2799
vt 0.7586 0.0466
vt 0.7352 0.1105
vt 0.7195 0.0364
vn 0.7087 -0.0148 0.7053
vn 0.7075 -0.0148 0.7065
vn 0.0000 -0.0300 0.9995
vn 0.0000 -0.0250 0.9997
vn 0.0000 0.9985 0.0540
vn 0.7057 0.0578 -0.7061
vn 0.0000 0.0727 -0.9973
vn -0.7057 -0.0021 -0.7085
vn -0.7055 0.0149 -0.7085
vn 0.0000 0.0172 -0.9998
vn 0.0000 -0.0067 -1.0000
vn -0.9999 0.0096 -0.0033
vn -0.9998 0.0215 -0.0007
vn -0.7057 0.0578 -0.7061
vn -0.7051 0.0336 -0.7083
vn 0.9998 0.0215 -0.0007
vn 0.0000 -1.0000 0.0000
vn 0.1595 -0.9742 -0.1595
vn 0.2255 -0.9742 0.0000
vn 0.7084 0.0208 0.7055
vn 0.7086 0.0038 0.7056
vn 0.0000 0.0015 1.0000
vn 0.0000 0.0256 0.9997
vn 0.1595 -0.9742 0.1595
vn 0.0000 -0.1646 0.9864
vn 0.0000 0.0509 0.9987
vn -0.7084 0.0385 0.7048
vn -0.6930 -0.1722 0.7000
vn 0.0000 -0.9742 0.2255
vn -0.9999 0.0091 -0.0034
vn -0.9815 -0.1910 0.0071
vn -0.7075 -0.0148 0.7065
vn -0.1595 -0.9742 0.1595
vn -0.9999 0.0093 -0.0028
vn -0.9999 0.0094 -0.0031
vn -0.2255 -0.9742 0.0000
vn 0.9815 -0.1910 0.0071
vn 0.9999 0.0091 -0.0034
vn 0.7084 0.0385 0.7048
vn 0.6930 -0.1722 0.7000
vn -0.1595 -0.9742 -0.1595
vn 0.0000 -0.9742 -0.2255
vn 0.9999 0.0096 -0.0033
vn 0.0000 -0.2184 -0.9758
vn 0.6949 -0.2103 -0.6876
vn 0.5191 -0.6790 -0.5191
vn 0.0000 -0.6790 -0.7341
vn 0.7341 -0.6790 0.0000
vn 0.5191 -0.6790 0.5191
vn 0.0000 -0.6790 0.7341
vn -0.5191 -0.6790 0.5191
vn -0.7341 -0.6790 0.0000
vn -0.6949 -0.2103 -0.6876
vn -0.5191 -0.6790 -0.5191
vn 0.9999 0.0093 -0.0028
vn 0.9999 0.0094 -0.0031
vn -0.7053 -0.0200 -0.7085
vn 0.0000 -0.0319 -0.9995
vn 0.0000 0.0435 -0.9991
vn -0.7087 -0.0148 0.7053
vn -0.7084 0.0208 0.7055
vn -0.7086 0.0038 0.7056
vn 0.7051 0.0336 -0.7083
vn 0.7053 -0.0200 -0.7085
vn 0.7055 0.0149 -0.7085
vn 0.7057 -0.0021 -0.7085
vn -0.6882 -0.2299 -0.6882
vn -0.7026 -0.1128 -0.7026
vn 0.0000 -0.1128 -0.9936
vn 0.0000 -0.2299 -0.9732
vn 0.0000 -0.0493 -0.9988
vn 0.0000 0.2355 -0.9719
vn 0.6872 0.2355 -0.6872
vn 0.7062 -0.0493 -0.7062
vn -0.7062 -0.0493 -0.7062
vn -0.6872 0.2355 -0.6872
vn 0.0000 1.0000 0.0000
vn 0.6487 0.7610 0.0000
vn 0.4587 0.7610 -0.4587
vn 0.9719 0.2355 0.0000
vn 0.9988 -0.0493 0.0000
vn 0.9732 -0.2299 0.0000
vn 0.9936 -0.1128 0.0000
vn 0.7026 -0.1128 0.7026
vn 0.6882 -0.2299 0.6882
vn 0.4587 0.7610 0.4587
vn 0.6872 0.2355 0.6872
vn 0.7062 -0.0493 0.7062
vn 0.0000 -0.1128 0.9936
vn 0.0000 -0.2299 0.9732
vn 0.0000 0.7610 0.6487
vn 0.0000 0.2355 0.9719
vn 0.0000 -0.0493 0.9988
vn -0.7026 -0.1128 0.7026
vn -0.6882 -0.2299 0.6882
vn -0.4587 0.7610 0.4587
vn -0.6872 0.2355 0.6872
vn -0.7062 -0.0493 0.7062
vn -0.9936 -0.1128 0.0000
vn -0.9732 -0.2299 0.0000
vn -0.6487 0.7610 0.0000
vn -0.9719 0.2355 0.0000
vn -0.9988 -0.0493 0.0000
vn -0.4587 0.7610 -0.4587
vn 0.0000 -0.5742 -0.8187
vn 0.5789 -0.5742 -0.5789
vn 0.6882 -0.2299 -0.6882
vn 0.7026 -0.1128 -0.7026
vn 0.0000 0.7610 -0.6487
vn -0.8187 -0.5742 0.0000
vn -0.5789 -0.5742 -0.5789
vn -0.5789 -0.5742 0.5789
vn 0.0000 -0.5742 0.8187
vn 0.5789 -0.5742 0.5789
vn 0.8187 -0.5742 0.0000
vn 0.0595 -0.4581 0.8868
vn 0.0612 0.4242 0.9035
vn -0.3467 0.3661 0.8636
vn -0.3495 -0.3992 0.8476
vn -0.3547 0.9350 0.0000
vn -0.0693 0.5745 0.8155
vn -0.5954 0.5885 0.5468
vn -0.7074 0.7068 0.0000
vn 0.1635 0.1444 -0.9759
vn 0.1342 -0.4255 -0.8949
vn 0.2607 0.4635 -0.8468
vn 0.0051 1.0000 0.0000
vn -0.3942 0.9190 0.0000
vn -0.3554 0.8488 0.3916
vn 0.0216 0.8950 0.4454
vn 0.1629 0.1427 0.9763
vn 0.1350 -0.4360 0.8897
vn 0.4815 -0.2019 0.8528
vn -0.3487 -0.3887 -0.8528
vn -0.3467 0.3661 -0.8636
vn 0.0612 0.4242 -0.9035
vn 0.0598 -0.4467 -0.8926
vn -0.0422 -0.4454 -0.8943
vn -0.0339 0.4351 -0.8997
vn 0.3633 0.9317 0.0000
vn 0.0017 1.0000 0.0000
vn -0.0044 0.8965 0.4430
vn 0.3535 0.8511 0.3882
vn 0.2607 0.4636 0.8468
vn -0.0339 0.4350 0.8997
vn -0.0420 -0.4567 0.8886
vn 0.8343 -0.5512 -0.0048
vn 0.7383 -0.4399 -0.5112
vn 0.5009 -0.4962 -0.7091
vn 0.7137 -0.7003 -0.0116
vn 0.1409 -0.1151 0.9833
vn -0.2728 0.2707 0.9232
vn 0.0034 -0.8372 -0.5469
vn 0.0073 -0.9999 -0.0074
vn 0.4727 -0.1954 -0.8593
vn -0.2726 0.2707 -0.9232
vn 0.1377 -0.1113 -0.9842
vn 0.0000 0.8534 0.5212
vn 0.0000 -0.3986 0.9171
vn 0.0000 0.3430 0.9393
vn 0.0000 0.3430 -0.9393
vn 0.0000 -0.3885 -0.9214
vn -0.9381 -0.3462 0.0000
vn -0.9379 0.3469 0.0000
vn -0.9018 0.3250 -0.2849
vn -0.9058 -0.3200 -0.2778
vn -0.0030 -1.0000 0.0000
vn 0.2315 -0.9728 -0.0018
vn 0.2304 -0.8618 0.4519
vn -0.0132 -0.9119 0.4102
vn 0.2295 -0.8559 -0.4634
vn 0.0045 -1.0000 0.0000
vn 0.0187 -0.9120 0.4098
vn -0.3623 -0.8605 0.3581
vn -0.9070 -0.3186 0.2754
vn -0.9018 0.3250 0.2849
vn -0.3605 -0.8568 -0.3686
vn -0.3554 0.8488 -0.3916
vn -0.3953 -0.9185 0.0000
vn 0.0193 -0.9069 -0.4207
vn -0.0044 0.8965 -0.4430
vn 0.3535 0.8511 -0.3882
vn -0.0693 0.5745 -0.8155
vn 0.5115 -0.5071 0.6937
vn 0.0033 -0.8471 0.5314
vn 0.7437 -0.4450 0.4989
vn -0.5954 0.5885 -0.5468
vn 0.0000 0.8534 -0.5212
vn -0.0136 -0.9068 -0.4212
vn 0.0216 0.8950 -0.4454
s 1
f 52/1/1 6/2/2 7/3/3 56/4/4
f 2/5/5 4/6/6 3/7/7
f 41/8/8 40/9/9 48/10/10 49/11/11
f 64/12/12 9/13/13 10/14/14 39/15/15
f 2/5/5 5/16/16 4/6/6
f 1/17/17 15/18/18 18/19/19
f 54/20/20 51/21/21 55/22/22 58/23/23
f 2/24/5 6/2/2 5/16/16
f 1/25/17 18/26/19 21/27/24
f 23/28/25 57/29/26 62/30/27 26/31/28
f 2/24/5 7/3/3 6/2/2
f 1/25/17 21/27/24 24/32/29
f 26/31/28 62/30/27 65/33/30 29/34/31
f 2/35/5 8/36/32 7/37/3
f 1/38/17 24/39/29 27/40/33
f 66/41/34 63/42/35 40/9/9 41/8/8
f 2/35/5 9/13/13 8/36/32
f 1/38/17 27/40/33 30/43/36
f 17/44/37 36/45/38 53/46/39 20/47/40
f 2/48/5 10/14/14 9/13/13
f 1/49/17 30/50/36 33/51/41
f 1/17/17 11/52/42 15/18/18
f 2/48/5 3/7/7 10/14/14
f 37/53/43 5/16/16 6/2/2 52/1/1
f 12/54/44 14/55/45 16/56/46 13/57/47
f 13/57/47 16/56/46 15/18/18 11/52/42
f 14/55/45 17/44/37 19/58/48 16/56/46
f 16/56/46 19/58/48 18/19/19 15/18/18
f 17/44/37 20/47/40 22/59/49 19/60/48
f 19/60/48 22/59/49 21/27/24 18/26/19
f 20/47/40 23/61/25 25/62/50 22/59/49
f 22/59/49 25/62/50 24/32/29 21/27/24
f 23/28/25 26/31/28 28/63/51 25/64/50
f 25/64/50 28/63/51 27/40/33 24/39/29
f 26/31/28 29/34/31 31/65/52 28/63/51
f 28/63/51 31/65/52 30/43/36 27/40/33
f 29/34/31 32/66/53 34/67/54 31/68/52
f 31/68/52 34/67/54 33/51/41 30/50/36
f 32/66/53 12/54/44 13/69/47 34/67/54
f 34/67/54 13/69/47 11/70/42 33/51/41
f 1/49/17 33/51/41 11/70/42
f 35/71/55 38/72/56 51/21/21 54/20/20
f 32/66/53 42/73/57 50/74/58 12/54/44
f 39/15/15 10/14/14 3/7/7 47/75/59
f 59/76/60 8/36/32 9/13/13 64/12/12
f 61/77/61 60/78/62 63/42/35 66/41/34
f 56/79/4 7/37/3 8/36/32 59/76/60
f 58/80/23 55/81/22 60/78/62 61/77/61
f 20/47/40 53/46/39 57/82/26 23/61/25
f 46/83/63 4/6/6 5/16/16 37/53/43
f 14/55/45 43/84/64 36/45/38 17/44/37
f 12/54/44 50/74/58 43/84/64 14/55/45
f 29/34/31 65/33/30 42/73/57 32/66/53
f 49/11/11 48/10/10 45/85/65 44/86/66
f 47/75/59 3/7/7 4/6/6 46/83/63
f 64/12/12 39/15/15 40/87/9 63/88/35
f 56/79/4 59/76/60 60/89/62 55/90/22
f 58/80/23 61/77/61 62/30/27 57/29/26
f 59/76/60 64/12/12 63/88/35 60/89/62
f 66/41/34 41/8/8 42/73/57 65/33/30
f 44/86/66 35/71/55 36/45/38 43/84/64
f 46/83/63 37/53/43 38/91/56 45/92/65
f 61/77/61 66/41/34 65/33/30 62/30/27
f 54/20/20 58/23/23 57/82/26 53/46/39
f 52/1/1 56/4/4 55/93/22 51/94/21
f 35/71/55 54/20/20 53/46/39 36/45/38
f 37/53/43 52/1/1 51/94/21 38/91/56
f 41/8/8 49/11/11 50/74/58 42/73/57
f 39/15/15 47/75/59 48/95/10 40/87/9
f 49/11/11 44/86/66 43/84/64 50/74/58
f 47/75/59 46/83/63 45/92/65 48/95/10
f 44/86/66 45/85/65 38/72/56 35/71/55
s 2
f 97/96/67 115/97/68 102/98/69 70/99/70
f 101/100/71 71/101/72 76/102/73 104/103/74
f 116/104/75 100/105/76 71/106/72 101/107/71
f 68/108/77 79/109/78 75/110/79
f 104/103/74 76/102/73 80/111/80 106/112/81
f 77/113/82 105/114/83 107/115/84 81/116/85
f 68/108/77 83/117/86 79/109/78
f 106/112/81 80/111/80 84/118/87 108/119/88
f 81/116/85 107/115/84 109/120/89 85/121/90
f 68/108/77 87/122/91 83/117/86
f 108/119/88 84/118/87 88/123/92 110/124/93
f 85/121/90 109/120/89 111/125/94 89/126/95
f 68/108/77 91/127/96 87/122/91
f 110/124/93 88/123/92 92/128/97 112/129/98
f 89/126/95 111/125/94 113/130/99 93/131/100
f 68/108/77 95/132/101 91/127/96
f 112/129/98 92/128/97 96/133/102 114/134/103
f 93/131/100 113/130/99 115/97/68 97/96/67
f 68/108/77 99/135/104 95/132/101
f 114/134/103 96/133/102 100/105/76 116/104/75
f 67/136/17 69/137/105 74/138/106
f 73/139/107 103/140/108 105/114/83 77/113/82
f 68/108/77 72/141/109 99/135/104
f 70/142/70 102/143/69 103/140/108 73/139/107
f 67/136/17 94/144/110 98/145/111
f 67/136/17 90/146/112 94/144/110
f 67/136/17 86/147/113 90/146/112
f 67/136/17 82/148/114 86/147/113
f 67/136/17 78/149/115 82/148/114
f 67/136/17 74/138/106 78/149/115
f 68/108/77 75/110/79 72/150/109
f 70/151/70 73/152/107 74/138/106 69/137/105
f 76/153/73 71/154/72 72/150/109 75/110/79
f 73/152/107 77/113/82 78/149/115 74/138/106
f 80/111/80 76/153/73 75/110/79 79/109/78
f 77/113/82 81/116/85 82/148/114 78/149/115
f 84/118/87 80/111/80 79/109/78 83/117/86
f 81/116/85 85/121/90 86/147/113 82/148/114
f 88/123/92 84/118/87 83/117/86 87/122/91
f 85/121/90 89/126/95 90/146/112 86/147/113
f 92/128/97 88/123/92 87/122/91 91/127/96
f 89/126/95 93/131/100 94/144/110 90/146/112
f 96/133/102 92/128/97 91/127/96 95/132/101
f 93/131/100 97/155/67 98/145/111 94/144/110
f 100/156/76 96/133/102 95/132/101 99/135/104
f 97/155/67 70/157/70 69/158/105 98/145/111
f 71/159/72 100/156/76 99/135/104 72/141/109
f 116/104/75 101/107/71 102/98/69 115/97/68
f 114/134/103 116/104/75 115/97/68 113/130/99
f 112/129/98 114/134/103 113/130/99 111/125/94
f 110/124/93 112/129/98 111/125/94 109/120/89
f 108/119/88 110/124/93 109/120/89 107/115/84
f 106/112/81 108/119/88 107/115/84 105/114/83
f 104/103/74 106/112/81 105/114/83 103/140/108
f 101/100/71 104/103/74 103/140/108 102/143/69
f 67/136/17 98/145/111 69/158/105
s 3
f 170/160/116 175/161/117 120/162/118 118/163/119
f 188/164/120 142/165/121 151/166/122 189/167/123
f 138/168/124 134/169/125 136/170/126
f 182/171/127 179/172/128 121/173/129 176/174/130
f 141/175/131 130/176/132 144/177/133
f 125/178/134 127/179/135 166/180/136 163/181/137
f 162/182/138 167/183/139 136/170/126 134/169/125
f 186/184/140 187/185/141 173/186/142 131/187/143
f 130/176/132 132/188/144 174/189/145 171/190/146
f 184/191/147 140/192/148 145/193/149 190/194/150
f 141/175/131 144/177/133 147/195/151 152/196/152
f 190/194/150 145/193/149 153/197/153 191/198/154
f 139/199/155 138/168/124 150/200/156 146/201/157
f 189/202/123 151/166/122 159/203/158 192/204/77
f 152/196/152 147/195/151 155/205/159 160/206/160
f 163/181/137 166/180/136 167/183/139 162/182/138
f 146/201/157 150/200/156 157/207/161 154/208/162
f 132/188/144 130/176/132 141/175/131
f 134/169/125 138/168/124 139/199/155
f 186/184/140 131/187/143 142/165/121 188/164/120
f 171/190/146 174/189/145 175/161/117 170/160/116
f 178/209/163 180/210/164 128/211/165 124/212/166
f 187/185/141 182/171/127 176/174/130 173/186/142
f 185/213/167 183/214/168 129/215/169 172/216/170
f 183/214/168 133/217/171 140/192/148 184/218/147
f 181/219/172 185/213/167 172/216/170 169/220/173
f 117/221/174 118/163/119 119/222/175
f 120/162/118 121/173/129 122/223/176
f 123/224/177 124/212/166 125/178/134
f 126/225/178 127/179/135 128/211/165
f 177/226/179 117/221/174 119/222/175 178/209/163
f 118/163/119 120/162/118 122/223/176 119/222/175
f 179/227/128 126/225/178 128/211/165 180/210/164
f 127/179/135 125/178/134 124/212/166 128/211/165
f 164/228/180 123/224/177 125/178/134 163/181/137
f 168/229/181 135/230/182 136/170/126 167/183/139
f 172/216/170 129/215/169 130/176/132 171/190/146
f 176/174/130 121/173/129 120/162/118 175/161/117
f 132/188/144 141/175/131 142/165/121 131/187/143
f 138/168/124 136/170/126 135/230/182 137/231/183
f 140/192/148 133/217/171 134/169/125 139/199/155
f 148/232/184 156/233/185 155/205/159 147/195/151
f 159/203/158 151/166/122 152/196/152 160/206/160
f 153/197/153 145/193/149 146/201/157 154/208/162
f 129/215/169 143/234/186 144/177/133 130/176/132
f 137/231/183 149/235/187 150/200/156 138/168/124
f 145/193/149 140/192/148 139/199/155 146/201/157
f 147/195/151 144/177/133 143/234/186 148/232/184
f 151/166/122 142/165/121 141/175/131 152/196/152
f 149/235/187 158/236/188 157/207/161 150/200/156
f 133/217/171 161/237/189 162/182/138 134/169/125
f 161/237/189 164/228/180 163/181/137 162/182/138
f 126/225/178 165/238/190 166/180/136 127/179/135
f 165/238/190 168/229/181 167/183/139 166/180/136
f 117/221/174 169/220/173 170/160/116 118/163/119
f 169/220/173 172/216/170 171/190/146 170/160/116
f 131/187/143 173/186/142 174/189/145 132/188/144
f 173/186/142 176/174/130 175/161/117 174/189/145
f 177/239/179 181/219/172 169/220/173 117/221/174
f 123/224/177 164/228/180 181/219/172 177/239/179
f 121/173/129 179/227/128 180/210/164 122/223/176
f 123/224/177 177/226/179 178/209/163 124/212/166
f 164/228/180 161/237/189 185/213/167 181/219/172
f 129/215/169 183/214/168 184/218/147 143/234/186
f 161/237/189 133/217/171 183/214/168 185/213/167
f 168/229/181 165/238/190 182/171/127 187/185/141
f 119/222/175 122/223/176 180/210/164 178/209/163
f 135/230/182 186/184/140 188/164/120 137/231/183
f 149/235/187 189/202/123 192/204/77 158/236/188
f 148/232/184 190/194/150 191/198/154 156/233/185
f 143/234/186 184/191/147 190/194/150 148/232/184
f 135/230/182 168/229/181 187/185/141 186/184/140
f 165/238/190 126/225/178 179/172/128 182/171/127
f 137/231/183 188/164/120 189/167/123 149/235/187
